%TF.GenerationSoftware,KiCad,Pcbnew,9.0.7*%
%TF.CreationDate,2026-05-15T13:55:02-04:00*%
%TF.ProjectId,Glassboard,476c6173-7362-46f6-9172-642e6b696361,rev?*%
%TF.SameCoordinates,Original*%
%TF.FileFunction,Drillmap*%
%TF.FilePolarity,Positive*%
%FSLAX45Y45*%
G04 Gerber Fmt 4.5, Leading zero omitted, Abs format (unit mm)*
G04 Created by KiCad (PCBNEW 9.0.7) date 2026-05-15 13:55:02*
%MOMM*%
%LPD*%
G01*
G04 APERTURE LIST*
%ADD10C,0.050000*%
%ADD11C,0.200000*%
%ADD12C,0.100000*%
G04 APERTURE END LIST*
D10*
X8242000Y0D02*
G75*
G02*
X8560000Y-318000I0J-318000D01*
G01*
X8560000Y-318000D02*
X8560000Y-5082000D01*
X8560000Y-5082000D02*
G75*
G02*
X8242000Y-5400000I-318000J0D01*
G01*
X0Y-318000D02*
G75*
G02*
X318000Y0I318000J0D01*
G01*
X318000Y-5400000D02*
G75*
G02*
X0Y-5082000I0J318000D01*
G01*
X0Y-5082000D02*
X0Y-318000D01*
X8242000Y-5400000D02*
X318000Y-5400000D01*
X318000Y0D02*
X8242000Y0D01*
D11*
D12*
X570000Y-185000D02*
X600000Y-215000D01*
X600000Y-185000D02*
X570000Y-215000D01*
X1055000Y-830000D02*
X1085000Y-860000D01*
X1085000Y-830000D02*
X1055000Y-860000D01*
X5238000Y-3430000D02*
X5268000Y-3460000D01*
X5268000Y-3430000D02*
X5238000Y-3460000D01*
X5340000Y-3430000D02*
X5370000Y-3460000D01*
X5370000Y-3430000D02*
X5340000Y-3460000D01*
X5440000Y-2810000D02*
X5470000Y-2840000D01*
X5470000Y-2810000D02*
X5440000Y-2840000D01*
X5577500Y-3638500D02*
X5607500Y-3668500D01*
X5607500Y-3638500D02*
X5577500Y-3668500D01*
X5615000Y-3203500D02*
X5645000Y-3233500D01*
X5645000Y-3203500D02*
X5615000Y-3233500D01*
X6072500Y-3765500D02*
X6102500Y-3795500D01*
X6102500Y-3765500D02*
X6072500Y-3795500D01*
X6090000Y-3265000D02*
X6120000Y-3295000D01*
X6120000Y-3265000D02*
X6090000Y-3295000D01*
X6515000Y-2810000D02*
X6545000Y-2840000D01*
X6545000Y-2810000D02*
X6515000Y-2840000D01*
X6633000Y-4230000D02*
X6663000Y-4260000D01*
X6663000Y-4230000D02*
X6633000Y-4260000D01*
D11*
X258277Y-5713984D02*
X258277Y-5513984D01*
X258277Y-5513984D02*
X305896Y-5513984D01*
X305896Y-5513984D02*
X334467Y-5523508D01*
X334467Y-5523508D02*
X353515Y-5542555D01*
X353515Y-5542555D02*
X363039Y-5561603D01*
X363039Y-5561603D02*
X372562Y-5599698D01*
X372562Y-5599698D02*
X372562Y-5628269D01*
X372562Y-5628269D02*
X363039Y-5666365D01*
X363039Y-5666365D02*
X353515Y-5685412D01*
X353515Y-5685412D02*
X334467Y-5704460D01*
X334467Y-5704460D02*
X305896Y-5713984D01*
X305896Y-5713984D02*
X258277Y-5713984D01*
X458277Y-5713984D02*
X458277Y-5580650D01*
X458277Y-5618746D02*
X467801Y-5599698D01*
X467801Y-5599698D02*
X477324Y-5590174D01*
X477324Y-5590174D02*
X496372Y-5580650D01*
X496372Y-5580650D02*
X515420Y-5580650D01*
X582086Y-5713984D02*
X582086Y-5580650D01*
X582086Y-5513984D02*
X572563Y-5523508D01*
X572563Y-5523508D02*
X582086Y-5533031D01*
X582086Y-5533031D02*
X591610Y-5523508D01*
X591610Y-5523508D02*
X582086Y-5513984D01*
X582086Y-5513984D02*
X582086Y-5533031D01*
X705896Y-5713984D02*
X686848Y-5704460D01*
X686848Y-5704460D02*
X677324Y-5685412D01*
X677324Y-5685412D02*
X677324Y-5513984D01*
X810658Y-5713984D02*
X791610Y-5704460D01*
X791610Y-5704460D02*
X782086Y-5685412D01*
X782086Y-5685412D02*
X782086Y-5513984D01*
X1039229Y-5713984D02*
X1039229Y-5513984D01*
X1039229Y-5513984D02*
X1105896Y-5656841D01*
X1105896Y-5656841D02*
X1172563Y-5513984D01*
X1172563Y-5513984D02*
X1172563Y-5713984D01*
X1353515Y-5713984D02*
X1353515Y-5609222D01*
X1353515Y-5609222D02*
X1343991Y-5590174D01*
X1343991Y-5590174D02*
X1324944Y-5580650D01*
X1324944Y-5580650D02*
X1286848Y-5580650D01*
X1286848Y-5580650D02*
X1267801Y-5590174D01*
X1353515Y-5704460D02*
X1334467Y-5713984D01*
X1334467Y-5713984D02*
X1286848Y-5713984D01*
X1286848Y-5713984D02*
X1267801Y-5704460D01*
X1267801Y-5704460D02*
X1258277Y-5685412D01*
X1258277Y-5685412D02*
X1258277Y-5666365D01*
X1258277Y-5666365D02*
X1267801Y-5647317D01*
X1267801Y-5647317D02*
X1286848Y-5637793D01*
X1286848Y-5637793D02*
X1334467Y-5637793D01*
X1334467Y-5637793D02*
X1353515Y-5628269D01*
X1448753Y-5580650D02*
X1448753Y-5780650D01*
X1448753Y-5590174D02*
X1467801Y-5580650D01*
X1467801Y-5580650D02*
X1505896Y-5580650D01*
X1505896Y-5580650D02*
X1524943Y-5590174D01*
X1524943Y-5590174D02*
X1534467Y-5599698D01*
X1534467Y-5599698D02*
X1543991Y-5618746D01*
X1543991Y-5618746D02*
X1543991Y-5675888D01*
X1543991Y-5675888D02*
X1534467Y-5694936D01*
X1534467Y-5694936D02*
X1524943Y-5704460D01*
X1524943Y-5704460D02*
X1505896Y-5713984D01*
X1505896Y-5713984D02*
X1467801Y-5713984D01*
X1467801Y-5713984D02*
X1448753Y-5704460D01*
X1629705Y-5694936D02*
X1639229Y-5704460D01*
X1639229Y-5704460D02*
X1629705Y-5713984D01*
X1629705Y-5713984D02*
X1620182Y-5704460D01*
X1620182Y-5704460D02*
X1629705Y-5694936D01*
X1629705Y-5694936D02*
X1629705Y-5713984D01*
X1629705Y-5590174D02*
X1639229Y-5599698D01*
X1639229Y-5599698D02*
X1629705Y-5609222D01*
X1629705Y-5609222D02*
X1620182Y-5599698D01*
X1620182Y-5599698D02*
X1629705Y-5590174D01*
X1629705Y-5590174D02*
X1629705Y-5609222D01*
D12*
X-32500Y-6027500D02*
X-2500Y-6057500D01*
X-2500Y-6027500D02*
X-32500Y-6057500D01*
D11*
X296372Y-5933984D02*
X315420Y-5933984D01*
X315420Y-5933984D02*
X334467Y-5943508D01*
X334467Y-5943508D02*
X343991Y-5953031D01*
X343991Y-5953031D02*
X353515Y-5972079D01*
X353515Y-5972079D02*
X363039Y-6010174D01*
X363039Y-6010174D02*
X363039Y-6057793D01*
X363039Y-6057793D02*
X353515Y-6095888D01*
X353515Y-6095888D02*
X343991Y-6114936D01*
X343991Y-6114936D02*
X334467Y-6124460D01*
X334467Y-6124460D02*
X315420Y-6133984D01*
X315420Y-6133984D02*
X296372Y-6133984D01*
X296372Y-6133984D02*
X277324Y-6124460D01*
X277324Y-6124460D02*
X267801Y-6114936D01*
X267801Y-6114936D02*
X258277Y-6095888D01*
X258277Y-6095888D02*
X248753Y-6057793D01*
X248753Y-6057793D02*
X248753Y-6010174D01*
X248753Y-6010174D02*
X258277Y-5972079D01*
X258277Y-5972079D02*
X267801Y-5953031D01*
X267801Y-5953031D02*
X277324Y-5943508D01*
X277324Y-5943508D02*
X296372Y-5933984D01*
X448753Y-6114936D02*
X458277Y-6124460D01*
X458277Y-6124460D02*
X448753Y-6133984D01*
X448753Y-6133984D02*
X439229Y-6124460D01*
X439229Y-6124460D02*
X448753Y-6114936D01*
X448753Y-6114936D02*
X448753Y-6133984D01*
X524944Y-5933984D02*
X648753Y-5933984D01*
X648753Y-5933984D02*
X582086Y-6010174D01*
X582086Y-6010174D02*
X610658Y-6010174D01*
X610658Y-6010174D02*
X629705Y-6019698D01*
X629705Y-6019698D02*
X639229Y-6029222D01*
X639229Y-6029222D02*
X648753Y-6048269D01*
X648753Y-6048269D02*
X648753Y-6095888D01*
X648753Y-6095888D02*
X639229Y-6114936D01*
X639229Y-6114936D02*
X629705Y-6124460D01*
X629705Y-6124460D02*
X610658Y-6133984D01*
X610658Y-6133984D02*
X553515Y-6133984D01*
X553515Y-6133984D02*
X534467Y-6124460D01*
X534467Y-6124460D02*
X524944Y-6114936D01*
X772562Y-5933984D02*
X791610Y-5933984D01*
X791610Y-5933984D02*
X810658Y-5943508D01*
X810658Y-5943508D02*
X820182Y-5953031D01*
X820182Y-5953031D02*
X829705Y-5972079D01*
X829705Y-5972079D02*
X839229Y-6010174D01*
X839229Y-6010174D02*
X839229Y-6057793D01*
X839229Y-6057793D02*
X829705Y-6095888D01*
X829705Y-6095888D02*
X820182Y-6114936D01*
X820182Y-6114936D02*
X810658Y-6124460D01*
X810658Y-6124460D02*
X791610Y-6133984D01*
X791610Y-6133984D02*
X772562Y-6133984D01*
X772562Y-6133984D02*
X753515Y-6124460D01*
X753515Y-6124460D02*
X743991Y-6114936D01*
X743991Y-6114936D02*
X734467Y-6095888D01*
X734467Y-6095888D02*
X724943Y-6057793D01*
X724943Y-6057793D02*
X724943Y-6010174D01*
X724943Y-6010174D02*
X734467Y-5972079D01*
X734467Y-5972079D02*
X743991Y-5953031D01*
X743991Y-5953031D02*
X753515Y-5943508D01*
X753515Y-5943508D02*
X772562Y-5933984D01*
X963039Y-5933984D02*
X982086Y-5933984D01*
X982086Y-5933984D02*
X1001134Y-5943508D01*
X1001134Y-5943508D02*
X1010658Y-5953031D01*
X1010658Y-5953031D02*
X1020182Y-5972079D01*
X1020182Y-5972079D02*
X1029705Y-6010174D01*
X1029705Y-6010174D02*
X1029705Y-6057793D01*
X1029705Y-6057793D02*
X1020182Y-6095888D01*
X1020182Y-6095888D02*
X1010658Y-6114936D01*
X1010658Y-6114936D02*
X1001134Y-6124460D01*
X1001134Y-6124460D02*
X982086Y-6133984D01*
X982086Y-6133984D02*
X963039Y-6133984D01*
X963039Y-6133984D02*
X943991Y-6124460D01*
X943991Y-6124460D02*
X934467Y-6114936D01*
X934467Y-6114936D02*
X924943Y-6095888D01*
X924943Y-6095888D02*
X915420Y-6057793D01*
X915420Y-6057793D02*
X915420Y-6010174D01*
X915420Y-6010174D02*
X924943Y-5972079D01*
X924943Y-5972079D02*
X934467Y-5953031D01*
X934467Y-5953031D02*
X943991Y-5943508D01*
X943991Y-5943508D02*
X963039Y-5933984D01*
X1115420Y-6133984D02*
X1115420Y-6000650D01*
X1115420Y-6019698D02*
X1124944Y-6010174D01*
X1124944Y-6010174D02*
X1143991Y-6000650D01*
X1143991Y-6000650D02*
X1172563Y-6000650D01*
X1172563Y-6000650D02*
X1191610Y-6010174D01*
X1191610Y-6010174D02*
X1201134Y-6029222D01*
X1201134Y-6029222D02*
X1201134Y-6133984D01*
X1201134Y-6029222D02*
X1210658Y-6010174D01*
X1210658Y-6010174D02*
X1229705Y-6000650D01*
X1229705Y-6000650D02*
X1258277Y-6000650D01*
X1258277Y-6000650D02*
X1277325Y-6010174D01*
X1277325Y-6010174D02*
X1286848Y-6029222D01*
X1286848Y-6029222D02*
X1286848Y-6133984D01*
X1382086Y-6133984D02*
X1382086Y-6000650D01*
X1382086Y-6019698D02*
X1391610Y-6010174D01*
X1391610Y-6010174D02*
X1410658Y-6000650D01*
X1410658Y-6000650D02*
X1439229Y-6000650D01*
X1439229Y-6000650D02*
X1458277Y-6010174D01*
X1458277Y-6010174D02*
X1467801Y-6029222D01*
X1467801Y-6029222D02*
X1467801Y-6133984D01*
X1467801Y-6029222D02*
X1477324Y-6010174D01*
X1477324Y-6010174D02*
X1496372Y-6000650D01*
X1496372Y-6000650D02*
X1524943Y-6000650D01*
X1524943Y-6000650D02*
X1543991Y-6010174D01*
X1543991Y-6010174D02*
X1553515Y-6029222D01*
X1553515Y-6029222D02*
X1553515Y-6133984D01*
X1943991Y-5924460D02*
X1772563Y-6181603D01*
X2201134Y-5933984D02*
X2220182Y-5933984D01*
X2220182Y-5933984D02*
X2239229Y-5943508D01*
X2239229Y-5943508D02*
X2248753Y-5953031D01*
X2248753Y-5953031D02*
X2258277Y-5972079D01*
X2258277Y-5972079D02*
X2267801Y-6010174D01*
X2267801Y-6010174D02*
X2267801Y-6057793D01*
X2267801Y-6057793D02*
X2258277Y-6095888D01*
X2258277Y-6095888D02*
X2248753Y-6114936D01*
X2248753Y-6114936D02*
X2239229Y-6124460D01*
X2239229Y-6124460D02*
X2220182Y-6133984D01*
X2220182Y-6133984D02*
X2201134Y-6133984D01*
X2201134Y-6133984D02*
X2182087Y-6124460D01*
X2182087Y-6124460D02*
X2172563Y-6114936D01*
X2172563Y-6114936D02*
X2163039Y-6095888D01*
X2163039Y-6095888D02*
X2153515Y-6057793D01*
X2153515Y-6057793D02*
X2153515Y-6010174D01*
X2153515Y-6010174D02*
X2163039Y-5972079D01*
X2163039Y-5972079D02*
X2172563Y-5953031D01*
X2172563Y-5953031D02*
X2182087Y-5943508D01*
X2182087Y-5943508D02*
X2201134Y-5933984D01*
X2353515Y-6114936D02*
X2363039Y-6124460D01*
X2363039Y-6124460D02*
X2353515Y-6133984D01*
X2353515Y-6133984D02*
X2343991Y-6124460D01*
X2343991Y-6124460D02*
X2353515Y-6114936D01*
X2353515Y-6114936D02*
X2353515Y-6133984D01*
X2486848Y-5933984D02*
X2505896Y-5933984D01*
X2505896Y-5933984D02*
X2524944Y-5943508D01*
X2524944Y-5943508D02*
X2534468Y-5953031D01*
X2534468Y-5953031D02*
X2543991Y-5972079D01*
X2543991Y-5972079D02*
X2553515Y-6010174D01*
X2553515Y-6010174D02*
X2553515Y-6057793D01*
X2553515Y-6057793D02*
X2543991Y-6095888D01*
X2543991Y-6095888D02*
X2534468Y-6114936D01*
X2534468Y-6114936D02*
X2524944Y-6124460D01*
X2524944Y-6124460D02*
X2505896Y-6133984D01*
X2505896Y-6133984D02*
X2486848Y-6133984D01*
X2486848Y-6133984D02*
X2467801Y-6124460D01*
X2467801Y-6124460D02*
X2458277Y-6114936D01*
X2458277Y-6114936D02*
X2448753Y-6095888D01*
X2448753Y-6095888D02*
X2439229Y-6057793D01*
X2439229Y-6057793D02*
X2439229Y-6010174D01*
X2439229Y-6010174D02*
X2448753Y-5972079D01*
X2448753Y-5972079D02*
X2458277Y-5953031D01*
X2458277Y-5953031D02*
X2467801Y-5943508D01*
X2467801Y-5943508D02*
X2486848Y-5933984D01*
X2743991Y-6133984D02*
X2629706Y-6133984D01*
X2686848Y-6133984D02*
X2686848Y-5933984D01*
X2686848Y-5933984D02*
X2667801Y-5962555D01*
X2667801Y-5962555D02*
X2648753Y-5981603D01*
X2648753Y-5981603D02*
X2629706Y-5991127D01*
X2934467Y-6133984D02*
X2820182Y-6133984D01*
X2877325Y-6133984D02*
X2877325Y-5933984D01*
X2877325Y-5933984D02*
X2858277Y-5962555D01*
X2858277Y-5962555D02*
X2839229Y-5981603D01*
X2839229Y-5981603D02*
X2820182Y-5991127D01*
X3048753Y-6019698D02*
X3029706Y-6010174D01*
X3029706Y-6010174D02*
X3020182Y-6000650D01*
X3020182Y-6000650D02*
X3010658Y-5981603D01*
X3010658Y-5981603D02*
X3010658Y-5972079D01*
X3010658Y-5972079D02*
X3020182Y-5953031D01*
X3020182Y-5953031D02*
X3029706Y-5943508D01*
X3029706Y-5943508D02*
X3048753Y-5933984D01*
X3048753Y-5933984D02*
X3086848Y-5933984D01*
X3086848Y-5933984D02*
X3105896Y-5943508D01*
X3105896Y-5943508D02*
X3115420Y-5953031D01*
X3115420Y-5953031D02*
X3124944Y-5972079D01*
X3124944Y-5972079D02*
X3124944Y-5981603D01*
X3124944Y-5981603D02*
X3115420Y-6000650D01*
X3115420Y-6000650D02*
X3105896Y-6010174D01*
X3105896Y-6010174D02*
X3086848Y-6019698D01*
X3086848Y-6019698D02*
X3048753Y-6019698D01*
X3048753Y-6019698D02*
X3029706Y-6029222D01*
X3029706Y-6029222D02*
X3020182Y-6038746D01*
X3020182Y-6038746D02*
X3010658Y-6057793D01*
X3010658Y-6057793D02*
X3010658Y-6095888D01*
X3010658Y-6095888D02*
X3020182Y-6114936D01*
X3020182Y-6114936D02*
X3029706Y-6124460D01*
X3029706Y-6124460D02*
X3048753Y-6133984D01*
X3048753Y-6133984D02*
X3086848Y-6133984D01*
X3086848Y-6133984D02*
X3105896Y-6124460D01*
X3105896Y-6124460D02*
X3115420Y-6114936D01*
X3115420Y-6114936D02*
X3124944Y-6095888D01*
X3124944Y-6095888D02*
X3124944Y-6057793D01*
X3124944Y-6057793D02*
X3115420Y-6038746D01*
X3115420Y-6038746D02*
X3105896Y-6029222D01*
X3105896Y-6029222D02*
X3086848Y-6019698D01*
X3201134Y-5933984D02*
X3201134Y-5972079D01*
X3277325Y-5933984D02*
X3277325Y-5972079D01*
X3572563Y-6210174D02*
X3563039Y-6200650D01*
X3563039Y-6200650D02*
X3543991Y-6172079D01*
X3543991Y-6172079D02*
X3534468Y-6153031D01*
X3534468Y-6153031D02*
X3524944Y-6124460D01*
X3524944Y-6124460D02*
X3515420Y-6076841D01*
X3515420Y-6076841D02*
X3515420Y-6038746D01*
X3515420Y-6038746D02*
X3524944Y-5991127D01*
X3524944Y-5991127D02*
X3534468Y-5962555D01*
X3534468Y-5962555D02*
X3543991Y-5943508D01*
X3543991Y-5943508D02*
X3563039Y-5914936D01*
X3563039Y-5914936D02*
X3572563Y-5905412D01*
X3753515Y-6133984D02*
X3639229Y-6133984D01*
X3696372Y-6133984D02*
X3696372Y-5933984D01*
X3696372Y-5933984D02*
X3677325Y-5962555D01*
X3677325Y-5962555D02*
X3658277Y-5981603D01*
X3658277Y-5981603D02*
X3639229Y-5991127D01*
X3943991Y-6133984D02*
X3829706Y-6133984D01*
X3886848Y-6133984D02*
X3886848Y-5933984D01*
X3886848Y-5933984D02*
X3867801Y-5962555D01*
X3867801Y-5962555D02*
X3848753Y-5981603D01*
X3848753Y-5981603D02*
X3829706Y-5991127D01*
X4182087Y-6133984D02*
X4182087Y-5933984D01*
X4267801Y-6133984D02*
X4267801Y-6029222D01*
X4267801Y-6029222D02*
X4258277Y-6010174D01*
X4258277Y-6010174D02*
X4239230Y-6000650D01*
X4239230Y-6000650D02*
X4210658Y-6000650D01*
X4210658Y-6000650D02*
X4191610Y-6010174D01*
X4191610Y-6010174D02*
X4182087Y-6019698D01*
X4391611Y-6133984D02*
X4372563Y-6124460D01*
X4372563Y-6124460D02*
X4363039Y-6114936D01*
X4363039Y-6114936D02*
X4353515Y-6095888D01*
X4353515Y-6095888D02*
X4353515Y-6038746D01*
X4353515Y-6038746D02*
X4363039Y-6019698D01*
X4363039Y-6019698D02*
X4372563Y-6010174D01*
X4372563Y-6010174D02*
X4391611Y-6000650D01*
X4391611Y-6000650D02*
X4420182Y-6000650D01*
X4420182Y-6000650D02*
X4439230Y-6010174D01*
X4439230Y-6010174D02*
X4448753Y-6019698D01*
X4448753Y-6019698D02*
X4458277Y-6038746D01*
X4458277Y-6038746D02*
X4458277Y-6095888D01*
X4458277Y-6095888D02*
X4448753Y-6114936D01*
X4448753Y-6114936D02*
X4439230Y-6124460D01*
X4439230Y-6124460D02*
X4420182Y-6133984D01*
X4420182Y-6133984D02*
X4391611Y-6133984D01*
X4572563Y-6133984D02*
X4553515Y-6124460D01*
X4553515Y-6124460D02*
X4543992Y-6105412D01*
X4543992Y-6105412D02*
X4543992Y-5933984D01*
X4724944Y-6124460D02*
X4705896Y-6133984D01*
X4705896Y-6133984D02*
X4667801Y-6133984D01*
X4667801Y-6133984D02*
X4648753Y-6124460D01*
X4648753Y-6124460D02*
X4639230Y-6105412D01*
X4639230Y-6105412D02*
X4639230Y-6029222D01*
X4639230Y-6029222D02*
X4648753Y-6010174D01*
X4648753Y-6010174D02*
X4667801Y-6000650D01*
X4667801Y-6000650D02*
X4705896Y-6000650D01*
X4705896Y-6000650D02*
X4724944Y-6010174D01*
X4724944Y-6010174D02*
X4734468Y-6029222D01*
X4734468Y-6029222D02*
X4734468Y-6048269D01*
X4734468Y-6048269D02*
X4639230Y-6067317D01*
X4810658Y-6124460D02*
X4829706Y-6133984D01*
X4829706Y-6133984D02*
X4867801Y-6133984D01*
X4867801Y-6133984D02*
X4886849Y-6124460D01*
X4886849Y-6124460D02*
X4896373Y-6105412D01*
X4896373Y-6105412D02*
X4896373Y-6095888D01*
X4896373Y-6095888D02*
X4886849Y-6076841D01*
X4886849Y-6076841D02*
X4867801Y-6067317D01*
X4867801Y-6067317D02*
X4839230Y-6067317D01*
X4839230Y-6067317D02*
X4820182Y-6057793D01*
X4820182Y-6057793D02*
X4810658Y-6038746D01*
X4810658Y-6038746D02*
X4810658Y-6029222D01*
X4810658Y-6029222D02*
X4820182Y-6010174D01*
X4820182Y-6010174D02*
X4839230Y-6000650D01*
X4839230Y-6000650D02*
X4867801Y-6000650D01*
X4867801Y-6000650D02*
X4886849Y-6010174D01*
X4963039Y-6210174D02*
X4972563Y-6200650D01*
X4972563Y-6200650D02*
X4991611Y-6172079D01*
X4991611Y-6172079D02*
X5001134Y-6153031D01*
X5001134Y-6153031D02*
X5010658Y-6124460D01*
X5010658Y-6124460D02*
X5020182Y-6076841D01*
X5020182Y-6076841D02*
X5020182Y-6038746D01*
X5020182Y-6038746D02*
X5010658Y-5991127D01*
X5010658Y-5991127D02*
X5001134Y-5962555D01*
X5001134Y-5962555D02*
X4991611Y-5943508D01*
X4991611Y-5943508D02*
X4972563Y-5914936D01*
X4972563Y-5914936D02*
X4963039Y-5905412D01*
M02*
