%TF.GenerationSoftware,KiCad,Pcbnew,9.0.7*%
%TF.CreationDate,2026-05-15T13:54:58-04:00*%
%TF.ProjectId,Glassboard,476c6173-7362-46f6-9172-642e6b696361,rev?*%
%TF.SameCoordinates,Original*%
%TF.FileFunction,Legend,Bot*%
%TF.FilePolarity,Positive*%
%FSLAX46Y46*%
G04 Gerber Fmt 4.6, Leading zero omitted, Abs format (unit mm)*
G04 Created by KiCad (PCBNEW 9.0.7) date 2026-05-15 13:54:58*
%MOMM*%
%LPD*%
G01*
G04 APERTURE LIST*
%ADD10C,0.000000*%
G04 APERTURE END LIST*
D10*
G36*
X30371711Y-35711631D02*
G01*
X30315894Y-36033418D01*
X30221614Y-36259951D01*
X30056330Y-36480950D01*
X29846952Y-36643441D01*
X29607687Y-36741938D01*
X29352744Y-36770951D01*
X29096330Y-36724994D01*
X28852654Y-36598579D01*
X28668795Y-36465392D01*
X28668795Y-36669781D01*
X28672077Y-36756402D01*
X28723977Y-36993922D01*
X28834784Y-37171641D01*
X28999077Y-37283048D01*
X29211437Y-37321631D01*
X29336003Y-37306546D01*
X29490713Y-37253840D01*
X29616732Y-37177402D01*
X29683472Y-37092108D01*
X29699219Y-37058676D01*
X29746519Y-37025789D01*
X29840760Y-37010275D01*
X30003411Y-37006382D01*
X30054166Y-37006448D01*
X30189374Y-37009699D01*
X30257512Y-37022990D01*
X30276657Y-37053326D01*
X30264883Y-37107712D01*
X30261542Y-37118395D01*
X30149705Y-37366165D01*
X29985172Y-37554327D01*
X29757667Y-37691510D01*
X29456915Y-37786344D01*
X29252338Y-37812517D01*
X28969829Y-37788923D01*
X28704674Y-37703240D01*
X28473898Y-37563871D01*
X28294526Y-37379223D01*
X28183583Y-37157701D01*
X28183508Y-37157452D01*
X28163355Y-37043611D01*
X28147879Y-36851187D01*
X28136964Y-36577332D01*
X28130499Y-36219199D01*
X28128369Y-35773941D01*
X28128369Y-35655319D01*
X28668795Y-35655319D01*
X28703894Y-35866157D01*
X28801996Y-36057439D01*
X28947556Y-36194590D01*
X29062779Y-36250557D01*
X29272130Y-36283092D01*
X29473430Y-36228507D01*
X29655841Y-36088427D01*
X29680681Y-36057941D01*
X29756114Y-35896040D01*
X29791852Y-35695335D01*
X29784483Y-35490983D01*
X29730596Y-35318143D01*
X29625512Y-35175883D01*
X29466865Y-35068542D01*
X29289104Y-35028207D01*
X29108093Y-35049840D01*
X28939694Y-35128406D01*
X28799770Y-35258865D01*
X28704182Y-35436182D01*
X28668795Y-35655319D01*
X28128369Y-35655319D01*
X28128369Y-34574468D01*
X28398582Y-34574468D01*
X28668795Y-34574468D01*
X28668795Y-34717424D01*
X28668795Y-34860381D01*
X28770739Y-34764609D01*
X28772581Y-34762887D01*
X28944190Y-34645668D01*
X29153616Y-34561662D01*
X29354139Y-34529683D01*
X29400685Y-34530761D01*
X29683150Y-34583829D01*
X29926654Y-34708921D01*
X30124231Y-34895143D01*
X30268912Y-35131598D01*
X30353728Y-35407393D01*
X30370748Y-35695335D01*
X30371711Y-35711631D01*
G37*
G36*
X73557893Y-34583695D02*
G01*
X73859600Y-34596985D01*
X74135931Y-35335503D01*
X74412263Y-36074020D01*
X74486521Y-35875928D01*
X74530191Y-35758571D01*
X74596525Y-35579201D01*
X74675867Y-35363953D01*
X74759142Y-35137411D01*
X74957505Y-34596985D01*
X75274476Y-34583797D01*
X75591448Y-34570608D01*
X75296887Y-35281846D01*
X75238180Y-35423881D01*
X75126920Y-35694406D01*
X75021159Y-35953129D01*
X74930604Y-36176267D01*
X74864964Y-36340037D01*
X74727602Y-36686988D01*
X74898122Y-37083122D01*
X74934710Y-37168195D01*
X75015854Y-37357377D01*
X75085282Y-37519888D01*
X75131013Y-37627711D01*
X75193382Y-37776168D01*
X74895101Y-37762818D01*
X74596820Y-37749468D01*
X74066517Y-36488475D01*
X74036206Y-36416406D01*
X73896056Y-36083355D01*
X73761480Y-35763821D01*
X73638344Y-35471709D01*
X73532509Y-35220922D01*
X73449840Y-35025366D01*
X73396200Y-34898943D01*
X73256186Y-34570404D01*
X73557893Y-34583695D01*
G37*
G36*
X33501522Y-35971570D02*
G01*
X33503448Y-36221557D01*
X33440701Y-36439389D01*
X33436225Y-36448143D01*
X33300823Y-36619477D01*
X33116749Y-36725143D01*
X32899212Y-36762424D01*
X32663423Y-36728601D01*
X32424595Y-36620956D01*
X32207023Y-36486442D01*
X32089709Y-36617740D01*
X32046716Y-36663040D01*
X31969157Y-36718684D01*
X31869420Y-36743416D01*
X31713708Y-36749037D01*
X31709177Y-36749033D01*
X31535463Y-36738683D01*
X31403480Y-36699215D01*
X31267171Y-36617011D01*
X31153465Y-36521991D01*
X30980484Y-36296544D01*
X30862210Y-36025186D01*
X30799818Y-35725540D01*
X30794481Y-35415229D01*
X30847374Y-35111875D01*
X30959671Y-34833101D01*
X31132547Y-34596530D01*
X31181963Y-34548706D01*
X31445461Y-34365897D01*
X31759326Y-34243192D01*
X32108504Y-34182126D01*
X32477941Y-34184232D01*
X32852583Y-34251044D01*
X33217376Y-34384096D01*
X33341237Y-34452538D01*
X33573067Y-34624585D01*
X33798465Y-34839458D01*
X33991794Y-35071495D01*
X34127418Y-35295035D01*
X34188595Y-35437676D01*
X34299897Y-35814865D01*
X34336635Y-36176462D01*
X34302355Y-36513967D01*
X34200604Y-36818882D01*
X34034927Y-37082705D01*
X33808870Y-37296938D01*
X33525978Y-37453081D01*
X33189798Y-37542634D01*
X33095903Y-37552908D01*
X32894842Y-37558967D01*
X32677497Y-37550103D01*
X32465129Y-37528756D01*
X32279002Y-37497365D01*
X32140378Y-37458369D01*
X32070522Y-37414209D01*
X32068173Y-37408415D01*
X32069823Y-37335533D01*
X32093454Y-37222743D01*
X32137076Y-37064755D01*
X32371793Y-37125640D01*
X32395089Y-37131530D01*
X32733053Y-37182229D01*
X33047354Y-37166772D01*
X33327013Y-37089577D01*
X33561055Y-36955057D01*
X33738502Y-36767628D01*
X33848378Y-36531706D01*
X33883814Y-36324281D01*
X33882649Y-36029982D01*
X33834812Y-35729244D01*
X33743880Y-35458782D01*
X33584249Y-35184644D01*
X33340229Y-34921836D01*
X33041920Y-34726536D01*
X32696916Y-34603526D01*
X32312810Y-34557586D01*
X32150520Y-34558484D01*
X31998161Y-34574336D01*
X31863723Y-34614504D01*
X31707441Y-34687523D01*
X31686090Y-34698551D01*
X31527026Y-34794111D01*
X31420674Y-34895384D01*
X31336595Y-35030524D01*
X31308617Y-35091418D01*
X31243708Y-35333406D01*
X31227453Y-35601622D01*
X31257509Y-35869244D01*
X31331531Y-36109453D01*
X31447173Y-36295426D01*
X31518891Y-36347188D01*
X31631792Y-36374739D01*
X31735488Y-36357751D01*
X31795478Y-36296153D01*
X31797132Y-36288167D01*
X31796005Y-36200416D01*
X31780808Y-36047138D01*
X31754441Y-35852478D01*
X32212468Y-35852478D01*
X32271532Y-36033806D01*
X32391759Y-36203613D01*
X32449754Y-36257944D01*
X32559845Y-36315724D01*
X32710192Y-36330851D01*
X32749079Y-36330575D01*
X32858695Y-36318907D01*
X32920777Y-36275723D01*
X32969111Y-36181538D01*
X33000648Y-36076647D01*
X33004426Y-35888572D01*
X32951524Y-35711493D01*
X32853722Y-35561220D01*
X32722797Y-35453562D01*
X32570529Y-35404329D01*
X32408695Y-35429331D01*
X32397997Y-35433984D01*
X32276126Y-35533105D01*
X32214141Y-35679090D01*
X32212468Y-35852478D01*
X31754441Y-35852478D01*
X31753765Y-35847489D01*
X31717097Y-35620621D01*
X31613409Y-35024822D01*
X31852449Y-35024822D01*
X31942361Y-35025865D01*
X32039912Y-35036364D01*
X32082271Y-35065646D01*
X32091490Y-35122743D01*
X32091550Y-35143700D01*
X32098225Y-35191446D01*
X32130277Y-35181356D01*
X32207815Y-35111485D01*
X32227117Y-35094000D01*
X32314000Y-35036838D01*
X32423485Y-35009931D01*
X32588943Y-35003855D01*
X32610511Y-35004060D01*
X32779682Y-35016539D01*
X32909825Y-35057568D01*
X33046256Y-35140706D01*
X33176291Y-35254493D01*
X33331085Y-35465457D01*
X33441782Y-35712010D01*
X33482419Y-35888572D01*
X33501522Y-35971570D01*
G37*
G36*
X73110364Y-35711631D02*
G01*
X73054546Y-36033418D01*
X72973004Y-36228957D01*
X72824759Y-36444027D01*
X72640952Y-36617229D01*
X72442800Y-36724593D01*
X72350462Y-36749098D01*
X72089549Y-36764719D01*
X71827772Y-36714745D01*
X71601106Y-36604316D01*
X71407447Y-36467813D01*
X71407447Y-36601991D01*
X71407397Y-36623170D01*
X71400658Y-36688420D01*
X71367538Y-36721976D01*
X71286807Y-36734378D01*
X71137235Y-36736170D01*
X70867022Y-36736170D01*
X70867022Y-35655319D01*
X71407447Y-35655319D01*
X71442547Y-35866157D01*
X71540648Y-36057439D01*
X71686209Y-36194590D01*
X71801432Y-36250557D01*
X72010783Y-36283092D01*
X72212083Y-36228507D01*
X72394494Y-36088427D01*
X72419334Y-36057941D01*
X72494766Y-35896040D01*
X72530504Y-35695335D01*
X72523136Y-35490983D01*
X72469248Y-35318143D01*
X72364164Y-35175883D01*
X72205517Y-35068542D01*
X72027757Y-35028207D01*
X71846746Y-35049840D01*
X71678347Y-35128406D01*
X71538422Y-35258865D01*
X71442835Y-35436182D01*
X71407447Y-35655319D01*
X70867022Y-35655319D01*
X70867022Y-34574468D01*
X71137235Y-34574468D01*
X71407447Y-34574468D01*
X71407447Y-34717424D01*
X71407447Y-34860381D01*
X71509392Y-34764609D01*
X71511234Y-34762887D01*
X71682842Y-34645668D01*
X71892269Y-34561662D01*
X72092792Y-34529683D01*
X72139338Y-34530761D01*
X72421802Y-34583829D01*
X72665307Y-34708921D01*
X72862884Y-34895143D01*
X73007564Y-35131598D01*
X73092381Y-35407393D01*
X73109401Y-35695335D01*
X73110364Y-35711631D01*
G37*
G36*
X67463712Y-34553085D02*
G01*
X67714421Y-34637489D01*
X67922083Y-34785014D01*
X67923978Y-34786913D01*
X68041481Y-34944528D01*
X68086913Y-35120695D01*
X68066697Y-35340070D01*
X68051748Y-35396958D01*
X67983092Y-35524276D01*
X67861289Y-35630791D01*
X67674096Y-35725384D01*
X67409267Y-35816939D01*
X67248505Y-35868683D01*
X67031204Y-35955808D01*
X66901742Y-36036907D01*
X66858866Y-36112653D01*
X66873472Y-36158829D01*
X66948671Y-36239198D01*
X67059084Y-36304138D01*
X67171995Y-36330851D01*
X67190207Y-36330558D01*
X67355436Y-36301579D01*
X67487834Y-36234792D01*
X67559085Y-36143874D01*
X67571756Y-36115905D01*
X67617633Y-36081413D01*
X67710612Y-36064885D01*
X67872055Y-36060638D01*
X68158607Y-36060638D01*
X68118069Y-36207003D01*
X68107965Y-36236859D01*
X68018502Y-36383116D01*
X67876985Y-36530288D01*
X67710125Y-36654016D01*
X67544633Y-36729941D01*
X67409848Y-36755687D01*
X67157331Y-36761227D01*
X66902267Y-36724890D01*
X66687651Y-36650653D01*
X66660624Y-36636245D01*
X66491797Y-36500955D01*
X66394620Y-36318656D01*
X66363476Y-36079451D01*
X66383274Y-35922025D01*
X66454663Y-35782122D01*
X66587330Y-35664478D01*
X66790861Y-35560784D01*
X67074838Y-35462729D01*
X67291672Y-35391421D01*
X67450298Y-35319565D01*
X67534097Y-35247637D01*
X67550562Y-35168951D01*
X67507184Y-35076820D01*
X67407250Y-35003093D01*
X67264826Y-34976587D01*
X67115436Y-34998684D01*
X66993972Y-35069858D01*
X66932970Y-35142835D01*
X66903901Y-35204964D01*
X66875199Y-35225302D01*
X66777619Y-35243163D01*
X66633688Y-35249999D01*
X66503874Y-35246185D01*
X66397057Y-35227657D01*
X66363476Y-35191969D01*
X66364275Y-35178765D01*
X66398897Y-35068430D01*
X66470073Y-34931306D01*
X66557620Y-34802021D01*
X66641354Y-34715205D01*
X66677147Y-34690791D01*
X66922690Y-34578515D01*
X67192340Y-34533020D01*
X67463712Y-34553085D01*
G37*
G36*
X58007388Y-36148969D02*
G01*
X58127789Y-36236762D01*
X58191391Y-36354472D01*
X58201956Y-36507130D01*
X58142178Y-36643145D01*
X58017712Y-36736825D01*
X57977468Y-36750383D01*
X57821712Y-36754295D01*
X57679788Y-36694373D01*
X57576470Y-36585720D01*
X57536525Y-36443439D01*
X57542484Y-36384835D01*
X57606865Y-36255060D01*
X57722257Y-36166742D01*
X57863988Y-36128504D01*
X58007388Y-36148969D01*
G37*
G36*
X54911231Y-35923761D02*
G01*
X54813994Y-36212626D01*
X54648841Y-36449671D01*
X54421162Y-36627594D01*
X54136348Y-36739094D01*
X53907344Y-36769294D01*
X53610731Y-36743467D01*
X53331397Y-36652269D01*
X53097244Y-36502064D01*
X52968183Y-36367650D01*
X52817072Y-36117903D01*
X52737219Y-35843217D01*
X52730222Y-35655319D01*
X53303192Y-35655319D01*
X53332105Y-35899080D01*
X53422213Y-36091050D01*
X53571931Y-36217500D01*
X53724636Y-36274384D01*
X53927894Y-36282560D01*
X54108262Y-36215882D01*
X54252942Y-36083210D01*
X54349135Y-35893402D01*
X54384043Y-35655319D01*
X54365740Y-35480183D01*
X54285495Y-35275993D01*
X54153145Y-35126301D01*
X53981537Y-35039999D01*
X53783517Y-35025981D01*
X53571931Y-35093138D01*
X53426636Y-35213804D01*
X53334325Y-35403444D01*
X53303192Y-35655319D01*
X52730222Y-35655319D01*
X52726637Y-35559043D01*
X52783336Y-35280832D01*
X52905330Y-35024035D01*
X53090631Y-34804104D01*
X53337251Y-34636490D01*
X53443579Y-34596401D01*
X53672598Y-34555960D01*
X53926839Y-34552173D01*
X54170335Y-34584487D01*
X54367119Y-34652349D01*
X54600454Y-34815553D01*
X54785856Y-35045297D01*
X54898520Y-35326357D01*
X54936506Y-35655319D01*
X54911231Y-35923761D01*
G37*
G36*
X40550745Y-35473651D02*
G01*
X40548433Y-35752984D01*
X40535507Y-35920718D01*
X40510615Y-36067200D01*
X40467271Y-36181274D01*
X40396624Y-36294512D01*
X40271573Y-36450533D01*
X40086405Y-36605700D01*
X39857503Y-36714007D01*
X39797475Y-36733297D01*
X39512462Y-36774857D01*
X39227837Y-36743060D01*
X38966167Y-36642702D01*
X38750018Y-36478581D01*
X38718209Y-36444507D01*
X38599322Y-36300586D01*
X38517181Y-36173804D01*
X38486525Y-36086116D01*
X38519507Y-36074136D01*
X38620406Y-36064381D01*
X38765533Y-36060638D01*
X38858005Y-36061862D01*
X38991312Y-36075200D01*
X39083794Y-36111032D01*
X39168005Y-36178925D01*
X39209152Y-36213045D01*
X39380770Y-36288861D01*
X39576575Y-36300628D01*
X39762857Y-36244622D01*
X39827713Y-36192862D01*
X39916915Y-36083613D01*
X39988436Y-35961201D01*
X40017731Y-35862431D01*
X39987072Y-35854970D01*
X39879655Y-35847182D01*
X39708840Y-35841002D01*
X39489090Y-35836929D01*
X39234863Y-35835460D01*
X38958071Y-35835045D01*
X38750850Y-35832778D01*
X38608285Y-35827155D01*
X38517511Y-35816672D01*
X38465664Y-35799824D01*
X38439881Y-35775107D01*
X38427297Y-35741017D01*
X38418537Y-35684732D01*
X38425375Y-35516653D01*
X38453458Y-35367348D01*
X38995742Y-35367348D01*
X39002394Y-35397879D01*
X39041411Y-35416451D01*
X39127219Y-35426038D01*
X39274246Y-35429611D01*
X39496918Y-35430141D01*
X40017989Y-35430141D01*
X39959539Y-35283776D01*
X39893302Y-35172295D01*
X39755290Y-35062813D01*
X39584690Y-35008906D01*
X39402933Y-35009564D01*
X39231452Y-35063775D01*
X39091676Y-35170528D01*
X39005038Y-35328812D01*
X38995742Y-35367348D01*
X38453458Y-35367348D01*
X38462536Y-35319082D01*
X38522296Y-35126906D01*
X38596926Y-34975015D01*
X38759236Y-34791965D01*
X38988347Y-34645479D01*
X39251076Y-34560401D01*
X39529301Y-34537980D01*
X39804900Y-34579468D01*
X40059752Y-34686114D01*
X40275735Y-34859169D01*
X40301779Y-34887982D01*
X40435297Y-35066975D01*
X40515659Y-35253589D01*
X40543808Y-35430141D01*
X40550745Y-35473651D01*
G37*
G36*
X23616392Y-35711631D02*
G01*
X23560575Y-36033418D01*
X23479033Y-36228957D01*
X23330787Y-36444027D01*
X23146980Y-36617229D01*
X22948829Y-36724593D01*
X22856491Y-36749098D01*
X22595577Y-36764719D01*
X22333801Y-36714745D01*
X22107134Y-36604316D01*
X21913476Y-36467813D01*
X21913476Y-36601991D01*
X21913425Y-36623170D01*
X21906687Y-36688420D01*
X21873567Y-36721976D01*
X21792835Y-36734378D01*
X21643263Y-36736170D01*
X21373050Y-36736170D01*
X21373050Y-35655319D01*
X21913476Y-35655319D01*
X21948575Y-35866157D01*
X22046677Y-36057439D01*
X22192237Y-36194590D01*
X22307460Y-36250557D01*
X22516811Y-36283092D01*
X22718111Y-36228507D01*
X22900522Y-36088427D01*
X22925362Y-36057941D01*
X23000795Y-35896040D01*
X23036533Y-35695335D01*
X23029164Y-35490983D01*
X22975277Y-35318143D01*
X22870193Y-35175883D01*
X22711545Y-35068542D01*
X22533785Y-35028207D01*
X22352774Y-35049840D01*
X22184375Y-35128406D01*
X22044450Y-35258865D01*
X21948863Y-35436182D01*
X21913476Y-35655319D01*
X21373050Y-35655319D01*
X21373050Y-34574468D01*
X21643263Y-34574468D01*
X21913476Y-34574468D01*
X21913476Y-34717424D01*
X21913476Y-34860381D01*
X22015420Y-34764609D01*
X22017262Y-34762887D01*
X22188871Y-34645668D01*
X22398297Y-34561662D01*
X22598820Y-34529683D01*
X22645366Y-34530761D01*
X22927830Y-34583829D01*
X23171335Y-34708921D01*
X23368912Y-34895143D01*
X23513593Y-35131598D01*
X23598409Y-35407393D01*
X23615429Y-35695335D01*
X23616392Y-35711631D01*
G37*
G36*
X18577364Y-36171423D02*
G01*
X18634793Y-36209188D01*
X18723469Y-36329438D01*
X18745362Y-36471415D01*
X18699998Y-36608266D01*
X18586905Y-36713138D01*
X18455561Y-36768051D01*
X18333011Y-36764027D01*
X18204124Y-36687866D01*
X18115998Y-36588237D01*
X18085461Y-36443439D01*
X18109266Y-36312508D01*
X18204124Y-36199013D01*
X18213236Y-36191910D01*
X18330490Y-36121423D01*
X18439066Y-36115540D01*
X18577364Y-36171423D01*
G37*
G36*
X17006881Y-34581227D02*
G01*
X17215920Y-34653908D01*
X17310109Y-34710753D01*
X17512181Y-34896348D01*
X17654314Y-35125408D01*
X17737602Y-35383235D01*
X17763139Y-35655133D01*
X17732018Y-35926404D01*
X17645333Y-36182353D01*
X17504177Y-36408281D01*
X17309644Y-36589493D01*
X17062828Y-36711291D01*
X17056707Y-36713231D01*
X16761746Y-36767033D01*
X16472632Y-36748595D01*
X16206564Y-36663378D01*
X15980742Y-36516839D01*
X15812368Y-36314438D01*
X15760411Y-36223286D01*
X15710523Y-36109698D01*
X15722877Y-36047322D01*
X15805227Y-36021007D01*
X15965331Y-36015602D01*
X16064832Y-36017134D01*
X16188993Y-36032077D01*
X16278138Y-36072688D01*
X16367185Y-36150709D01*
X16468229Y-36230207D01*
X16647789Y-36290234D01*
X16834452Y-36265533D01*
X17013389Y-36155985D01*
X17019211Y-36150764D01*
X17095196Y-36073650D01*
X17139539Y-35994448D01*
X17163020Y-35883831D01*
X17176419Y-35712474D01*
X17175577Y-35479274D01*
X17131555Y-35270779D01*
X17036395Y-35129838D01*
X16885384Y-35050001D01*
X16673809Y-35024822D01*
X16552438Y-35032104D01*
X16450420Y-35070901D01*
X16358507Y-35159929D01*
X16301396Y-35222102D01*
X16228952Y-35269951D01*
X16129547Y-35290596D01*
X15971702Y-35295035D01*
X15856272Y-35293502D01*
X15755131Y-35282941D01*
X15709335Y-35256741D01*
X15698582Y-35208465D01*
X15715804Y-35136832D01*
X15789575Y-35007507D01*
X15903337Y-34866856D01*
X16037244Y-34738481D01*
X16171454Y-34645987D01*
X16261976Y-34607793D01*
X16494459Y-34557900D01*
X16754577Y-34549134D01*
X17006881Y-34581227D01*
G37*
G36*
X15370096Y-35923761D02*
G01*
X15272859Y-36212626D01*
X15107706Y-36449671D01*
X14880027Y-36627594D01*
X14595213Y-36739094D01*
X14366210Y-36769294D01*
X14069597Y-36743467D01*
X13790262Y-36652269D01*
X13556110Y-36502064D01*
X13427048Y-36367650D01*
X13275938Y-36117903D01*
X13196085Y-35843217D01*
X13189087Y-35655319D01*
X13762057Y-35655319D01*
X13790970Y-35899080D01*
X13881079Y-36091050D01*
X14030796Y-36217500D01*
X14183502Y-36274384D01*
X14386760Y-36282560D01*
X14567128Y-36215882D01*
X14711807Y-36083210D01*
X14808000Y-35893402D01*
X14842908Y-35655319D01*
X14824606Y-35480183D01*
X14744360Y-35275993D01*
X14612010Y-35126301D01*
X14440402Y-35039999D01*
X14242382Y-35025981D01*
X14030796Y-35093138D01*
X13885501Y-35213804D01*
X13793190Y-35403444D01*
X13762057Y-35655319D01*
X13189087Y-35655319D01*
X13185502Y-35559043D01*
X13242202Y-35280832D01*
X13364196Y-35024035D01*
X13549496Y-34804104D01*
X13796116Y-34636490D01*
X13902445Y-34596401D01*
X14131463Y-34555960D01*
X14385704Y-34552173D01*
X14629200Y-34584487D01*
X14825984Y-34652349D01*
X15059319Y-34815553D01*
X15244722Y-35045297D01*
X15357385Y-35326357D01*
X15395371Y-35655319D01*
X15370096Y-35923761D01*
G37*
G36*
X70326596Y-35295035D02*
G01*
X70326596Y-36736170D01*
X70056383Y-36736170D01*
X69786171Y-36736170D01*
X69786171Y-36308333D01*
X69784823Y-36197729D01*
X69776954Y-36034526D01*
X69763622Y-35922263D01*
X69746634Y-35880496D01*
X69746522Y-35880498D01*
X69704840Y-35914587D01*
X69621155Y-36006567D01*
X69507561Y-36142472D01*
X69376153Y-36308333D01*
X69045210Y-36736170D01*
X68689608Y-36736170D01*
X68558487Y-36737589D01*
X68459471Y-36736184D01*
X68403144Y-36722529D01*
X68392070Y-36687193D01*
X68428815Y-36620741D01*
X68515941Y-36513741D01*
X68656015Y-36356760D01*
X68851601Y-36140365D01*
X68878786Y-36110033D01*
X69022282Y-35946017D01*
X69138851Y-35806333D01*
X69217127Y-35704953D01*
X69245745Y-35655850D01*
X69236795Y-35632313D01*
X69200874Y-35579403D01*
X69132227Y-35492668D01*
X69025301Y-35365522D01*
X68874547Y-35191385D01*
X68674412Y-34963671D01*
X68419345Y-34675797D01*
X68329335Y-34574468D01*
X68692020Y-34574468D01*
X69054705Y-34574468D01*
X69386661Y-35001861D01*
X69388073Y-35003678D01*
X69519179Y-35169030D01*
X69631539Y-35304438D01*
X69713247Y-35395970D01*
X69752394Y-35429698D01*
X69761882Y-35397978D01*
X69771582Y-35289487D01*
X69779275Y-35117730D01*
X69784344Y-34897108D01*
X69786171Y-34642021D01*
X69786171Y-33853900D01*
X70056383Y-33853900D01*
X70326596Y-33853900D01*
X70326596Y-35295035D01*
G37*
G36*
X65913121Y-35295035D02*
G01*
X65913121Y-36736170D01*
X65620391Y-36736170D01*
X65327660Y-36736170D01*
X65327660Y-36012138D01*
X65327660Y-35288106D01*
X65196018Y-35156464D01*
X65082672Y-35073679D01*
X64896480Y-35019899D01*
X64703286Y-35039489D01*
X64530792Y-35133408D01*
X64404433Y-35241994D01*
X64390143Y-35989082D01*
X64375854Y-36736170D01*
X64108672Y-36736170D01*
X63841490Y-36736170D01*
X63841490Y-35946255D01*
X63841501Y-35909054D01*
X63842913Y-35623844D01*
X63847632Y-35411729D01*
X63857019Y-35257461D01*
X63872431Y-35145791D01*
X63895228Y-35061470D01*
X63926769Y-34989251D01*
X64012673Y-34845789D01*
X64152458Y-34704386D01*
X64348341Y-34598703D01*
X64538843Y-34546484D01*
X64795310Y-34544614D01*
X65040951Y-34610888D01*
X65247200Y-34740789D01*
X65263409Y-34754901D01*
X65293556Y-34770945D01*
X65312423Y-34750163D01*
X65322642Y-34679243D01*
X65326844Y-34544877D01*
X65327660Y-34333752D01*
X65327660Y-33853900D01*
X65620391Y-33853900D01*
X65913121Y-33853900D01*
X65913121Y-35295035D01*
G37*
G36*
X63301064Y-35655319D02*
G01*
X63301064Y-36736170D01*
X63030852Y-36736170D01*
X62760639Y-36736170D01*
X62760639Y-35655319D01*
X62760639Y-34574468D01*
X63030852Y-34574468D01*
X63301064Y-34574468D01*
X63301064Y-35655319D01*
G37*
G36*
X62130142Y-34304255D02*
G01*
X62130142Y-34574468D01*
X62265249Y-34574468D01*
X62331968Y-34576996D01*
X62379254Y-34599874D01*
X62397403Y-34666345D01*
X62400355Y-34799645D01*
X62398838Y-34910843D01*
X62385111Y-34989654D01*
X62345228Y-35019903D01*
X62265249Y-35024822D01*
X62130142Y-35024822D01*
X62130072Y-35644060D01*
X62130062Y-35659603D01*
X62124543Y-35967796D01*
X62105959Y-36200775D01*
X62070006Y-36372376D01*
X62012381Y-36496437D01*
X61928778Y-36586795D01*
X61814894Y-36657288D01*
X61801495Y-36663686D01*
X61614769Y-36717053D01*
X61375798Y-36736100D01*
X61094327Y-36736170D01*
X61094327Y-36510992D01*
X61094327Y-36285815D01*
X61271252Y-36285815D01*
X61301505Y-36285559D01*
X61414086Y-36274882D01*
X61493004Y-36239017D01*
X61544142Y-36165008D01*
X61573384Y-36039898D01*
X61586614Y-35850730D01*
X61589717Y-35584549D01*
X61589717Y-35024822D01*
X61342022Y-35024822D01*
X61094327Y-35024822D01*
X61094327Y-34799645D01*
X61094327Y-34574468D01*
X61342022Y-34574468D01*
X61589717Y-34574468D01*
X61589717Y-34304255D01*
X61589717Y-34034042D01*
X61859930Y-34034042D01*
X62130142Y-34034042D01*
X62130142Y-34304255D01*
G37*
G36*
X60689008Y-35295035D02*
G01*
X60689008Y-36736170D01*
X60418795Y-36736170D01*
X60148582Y-36736170D01*
X60148582Y-36058401D01*
X60148554Y-36027543D01*
X60142772Y-35699894D01*
X60123517Y-35450829D01*
X60085862Y-35270079D01*
X60024879Y-35147374D01*
X59935641Y-35072443D01*
X59813220Y-35035016D01*
X59652688Y-35024822D01*
X59593267Y-35026789D01*
X59456555Y-35061580D01*
X59334480Y-35156464D01*
X59202837Y-35288106D01*
X59202837Y-36012138D01*
X59202837Y-36736170D01*
X58910107Y-36736170D01*
X58617376Y-36736170D01*
X58617376Y-36046294D01*
X58617981Y-35904192D01*
X58626562Y-35581004D01*
X58647916Y-35328271D01*
X58685372Y-35131996D01*
X58742261Y-34978180D01*
X58821911Y-34852828D01*
X58927652Y-34741942D01*
X59003260Y-34681881D01*
X59233981Y-34571339D01*
X59489199Y-34535090D01*
X59748221Y-34574156D01*
X59990357Y-34689556D01*
X60148582Y-34796930D01*
X60148582Y-34325415D01*
X60148582Y-33853900D01*
X60418795Y-33853900D01*
X60689008Y-33853900D01*
X60689008Y-35295035D01*
G37*
G36*
X57086171Y-35295035D02*
G01*
X57086171Y-36736170D01*
X56815958Y-36736170D01*
X56545745Y-36736170D01*
X56545745Y-36280048D01*
X56545745Y-35823926D01*
X56181311Y-36280048D01*
X55816877Y-36736170D01*
X55457406Y-36736170D01*
X55097934Y-36736170D01*
X55580893Y-36193994D01*
X56063852Y-35651817D01*
X55953074Y-35529721D01*
X55782925Y-35341401D01*
X55571741Y-35105081D01*
X55396523Y-34905825D01*
X55263568Y-34750896D01*
X55179176Y-34647560D01*
X55149646Y-34603082D01*
X55152088Y-34599719D01*
X55211529Y-34587370D01*
X55334272Y-34579369D01*
X55498671Y-34577315D01*
X55847696Y-34580162D01*
X56185461Y-35016004D01*
X56523227Y-35451846D01*
X56535525Y-34652873D01*
X56547824Y-33853900D01*
X56816997Y-33853900D01*
X57086171Y-33853900D01*
X57086171Y-35295035D01*
G37*
G36*
X51128250Y-34530643D02*
G01*
X51329687Y-34562976D01*
X51532605Y-34638501D01*
X51691526Y-34740789D01*
X51736949Y-34778711D01*
X51766549Y-34775568D01*
X51771986Y-34694036D01*
X51772012Y-34684291D01*
X51778656Y-34622173D01*
X51811771Y-34589417D01*
X51892552Y-34576642D01*
X52042199Y-34574468D01*
X52312412Y-34574468D01*
X52312412Y-35655319D01*
X52312412Y-36736170D01*
X52042199Y-36736170D01*
X51771986Y-36736170D01*
X51771986Y-36078703D01*
X51771266Y-35914999D01*
X51765511Y-35668225D01*
X51752939Y-35488951D01*
X51732279Y-35362527D01*
X51702263Y-35274305D01*
X51632415Y-35168880D01*
X51485655Y-35062229D01*
X51308678Y-35022286D01*
X51123166Y-35052461D01*
X50950800Y-35156162D01*
X50803724Y-35287502D01*
X50788508Y-36011836D01*
X50773293Y-36736170D01*
X50507037Y-36736170D01*
X50240781Y-36736170D01*
X50240781Y-36058401D01*
X50240634Y-35985880D01*
X50235029Y-35686373D01*
X50219006Y-35461858D01*
X50189428Y-35300046D01*
X50143158Y-35188645D01*
X50077060Y-35115368D01*
X49987997Y-35067923D01*
X49793069Y-35023336D01*
X49593243Y-35049641D01*
X49426678Y-35156464D01*
X49295036Y-35288106D01*
X49295036Y-36012138D01*
X49295036Y-36736170D01*
X49002305Y-36736170D01*
X48709575Y-36736170D01*
X48709575Y-36085372D01*
X48709786Y-36024227D01*
X48714840Y-35769147D01*
X48725617Y-35531335D01*
X48740758Y-35335053D01*
X48758903Y-35204564D01*
X48778466Y-35129738D01*
X48891356Y-34899266D01*
X49061406Y-34720746D01*
X49272805Y-34598873D01*
X49509743Y-34538345D01*
X49756412Y-34543857D01*
X49997000Y-34620108D01*
X50215700Y-34771793D01*
X50373481Y-34920600D01*
X50476014Y-34809146D01*
X50498971Y-34785691D01*
X50678393Y-34657341D01*
X50896222Y-34565897D01*
X51109160Y-34530421D01*
X51128250Y-34530643D01*
G37*
G36*
X47030023Y-34530643D02*
G01*
X47231460Y-34562976D01*
X47434378Y-34638501D01*
X47593299Y-34740789D01*
X47638722Y-34778711D01*
X47668322Y-34775568D01*
X47673759Y-34694036D01*
X47673785Y-34684291D01*
X47680429Y-34622173D01*
X47713544Y-34589417D01*
X47794325Y-34576642D01*
X47943972Y-34574468D01*
X48214185Y-34574468D01*
X48214185Y-35655319D01*
X48214185Y-36736170D01*
X47943972Y-36736170D01*
X47673759Y-36736170D01*
X47673759Y-36078703D01*
X47673039Y-35914999D01*
X47667284Y-35668225D01*
X47654712Y-35488951D01*
X47634052Y-35362527D01*
X47604036Y-35274305D01*
X47534188Y-35168880D01*
X47387428Y-35062229D01*
X47210451Y-35022286D01*
X47024939Y-35052461D01*
X46852573Y-35156162D01*
X46705497Y-35287502D01*
X46690281Y-36011836D01*
X46675066Y-36736170D01*
X46408810Y-36736170D01*
X46142554Y-36736170D01*
X46142554Y-36058401D01*
X46142407Y-35985880D01*
X46136802Y-35686373D01*
X46120779Y-35461858D01*
X46091201Y-35300046D01*
X46044931Y-35188645D01*
X45978833Y-35115368D01*
X45889770Y-35067923D01*
X45694842Y-35023336D01*
X45495016Y-35049641D01*
X45328451Y-35156464D01*
X45196809Y-35288106D01*
X45196809Y-36012138D01*
X45196809Y-36736170D01*
X44904079Y-36736170D01*
X44611348Y-36736170D01*
X44611348Y-36085372D01*
X44611559Y-36024227D01*
X44616613Y-35769147D01*
X44627390Y-35531335D01*
X44642531Y-35335053D01*
X44660676Y-35204564D01*
X44680239Y-35129738D01*
X44793130Y-34899266D01*
X44963179Y-34720746D01*
X45174578Y-34598873D01*
X45411516Y-34538345D01*
X45658185Y-34543857D01*
X45898773Y-34620108D01*
X46117473Y-34771793D01*
X46275254Y-34920600D01*
X46377787Y-34809146D01*
X46400744Y-34785691D01*
X46580166Y-34657341D01*
X46797995Y-34565897D01*
X47010933Y-34530421D01*
X47030023Y-34530643D01*
G37*
G36*
X44115958Y-35655319D02*
G01*
X44115958Y-36736170D01*
X43845745Y-36736170D01*
X43575532Y-36736170D01*
X43575532Y-35655319D01*
X43575532Y-34574468D01*
X43845745Y-34574468D01*
X44115958Y-34574468D01*
X44115958Y-35655319D01*
G37*
G36*
X42064810Y-34573898D02*
G01*
X42116678Y-34590391D01*
X42251427Y-34650398D01*
X42341783Y-34714796D01*
X42343012Y-34716151D01*
X42428359Y-34788978D01*
X42478373Y-34779378D01*
X42494681Y-34687056D01*
X42494687Y-34683110D01*
X42501185Y-34622360D01*
X42534286Y-34589878D01*
X42615139Y-34576851D01*
X42764894Y-34574468D01*
X43035107Y-34574468D01*
X43035107Y-35655319D01*
X43035107Y-36736170D01*
X42764894Y-36736170D01*
X42494681Y-36736170D01*
X42493607Y-36161968D01*
X42489135Y-35880478D01*
X42469484Y-35582568D01*
X42430768Y-35358445D01*
X42369276Y-35199359D01*
X42281292Y-35096561D01*
X42163104Y-35041298D01*
X42010998Y-35024822D01*
X41991337Y-35024930D01*
X41832962Y-35038122D01*
X41712239Y-35080419D01*
X41624324Y-35161913D01*
X41564376Y-35292696D01*
X41527550Y-35482862D01*
X41509006Y-35742502D01*
X41503901Y-36081709D01*
X41503901Y-36736170D01*
X41233688Y-36736170D01*
X40963476Y-36736170D01*
X40963476Y-35962268D01*
X40963558Y-35860926D01*
X40965335Y-35598030D01*
X40970644Y-35403853D01*
X40981075Y-35262230D01*
X40998219Y-35156996D01*
X41023665Y-35071985D01*
X41059003Y-34991034D01*
X41130811Y-34871736D01*
X41310934Y-34695243D01*
X41538021Y-34582053D01*
X41795003Y-34539245D01*
X42064810Y-34573898D01*
G37*
G36*
X37065874Y-34573898D02*
G01*
X37117741Y-34590391D01*
X37252491Y-34650398D01*
X37342847Y-34714796D01*
X37344076Y-34716151D01*
X37429423Y-34788978D01*
X37479436Y-34779378D01*
X37495745Y-34687056D01*
X37495751Y-34683110D01*
X37502249Y-34622360D01*
X37535350Y-34589878D01*
X37616203Y-34576851D01*
X37765958Y-34574468D01*
X38036171Y-34574468D01*
X38036171Y-35655319D01*
X38036171Y-36736170D01*
X37765958Y-36736170D01*
X37495745Y-36736170D01*
X37494671Y-36161968D01*
X37490199Y-35880478D01*
X37470547Y-35582568D01*
X37431832Y-35358445D01*
X37370339Y-35199359D01*
X37282356Y-35096561D01*
X37164168Y-35041298D01*
X37012062Y-35024822D01*
X36992401Y-35024930D01*
X36834026Y-35038122D01*
X36713303Y-35080419D01*
X36625388Y-35161913D01*
X36565439Y-35292696D01*
X36528614Y-35482862D01*
X36510070Y-35742502D01*
X36504965Y-36081709D01*
X36504965Y-36736170D01*
X36234752Y-36736170D01*
X35964540Y-36736170D01*
X35964540Y-35962268D01*
X35964622Y-35860926D01*
X35966398Y-35598030D01*
X35971707Y-35403853D01*
X35982139Y-35262230D01*
X35999283Y-35156996D01*
X36024728Y-35071985D01*
X36060066Y-34991034D01*
X36131875Y-34871736D01*
X36311998Y-34695243D01*
X36539085Y-34582053D01*
X36796067Y-34539245D01*
X37065874Y-34573898D01*
G37*
G36*
X35424114Y-35655319D02*
G01*
X35424114Y-36736170D01*
X35153901Y-36736170D01*
X34883688Y-36736170D01*
X34883688Y-35655319D01*
X34883688Y-34574468D01*
X35153901Y-34574468D01*
X35424114Y-34574468D01*
X35424114Y-35655319D01*
G37*
G36*
X24942360Y-34536521D02*
G01*
X25158268Y-34590248D01*
X25363510Y-34688837D01*
X25518708Y-34815234D01*
X25616468Y-34927669D01*
X25763006Y-34781131D01*
X25878392Y-34686378D01*
X26111955Y-34577361D01*
X26369878Y-34539308D01*
X26630109Y-34574156D01*
X26870597Y-34683842D01*
X27047518Y-34800923D01*
X27047518Y-34687695D01*
X27047526Y-34683207D01*
X27054041Y-34622336D01*
X27087144Y-34589833D01*
X27167988Y-34576831D01*
X27317731Y-34574468D01*
X27587944Y-34574468D01*
X27587944Y-35655319D01*
X27587944Y-36736170D01*
X27317731Y-36736170D01*
X27047518Y-36736170D01*
X27046444Y-36161968D01*
X27044691Y-35967554D01*
X27033912Y-35688008D01*
X27011109Y-35477370D01*
X26973698Y-35322365D01*
X26919091Y-35209717D01*
X26844705Y-35126152D01*
X26697991Y-35046087D01*
X26520649Y-35025640D01*
X26345808Y-35065261D01*
X26199225Y-35158870D01*
X26106656Y-35300387D01*
X26101379Y-35319096D01*
X26083822Y-35437352D01*
X26069652Y-35619105D01*
X26060186Y-35843548D01*
X26056738Y-36089876D01*
X26056738Y-36736170D01*
X25786525Y-36736170D01*
X25516313Y-36736170D01*
X25516313Y-36078703D01*
X25511983Y-35762697D01*
X25496737Y-35519949D01*
X25467462Y-35342301D01*
X25421044Y-35217368D01*
X25354370Y-35132762D01*
X25264328Y-35076098D01*
X25079191Y-35027824D01*
X24887236Y-35044236D01*
X24728346Y-35126152D01*
X24683538Y-35170800D01*
X24620698Y-35269246D01*
X24576170Y-35404311D01*
X24547370Y-35589270D01*
X24531710Y-35837397D01*
X24526607Y-36161968D01*
X24525532Y-36736170D01*
X24255320Y-36736170D01*
X23985107Y-36736170D01*
X23985358Y-36026861D01*
X23986126Y-35899662D01*
X23991798Y-35648425D01*
X24002079Y-35426175D01*
X24015883Y-35253270D01*
X24032124Y-35150068D01*
X24056193Y-35078317D01*
X24185805Y-34860801D01*
X24376517Y-34687475D01*
X24608844Y-34572844D01*
X24863298Y-34531410D01*
X24942360Y-34536521D01*
G37*
G36*
X20832625Y-35655319D02*
G01*
X20832625Y-36736170D01*
X20562412Y-36736170D01*
X20292199Y-36736170D01*
X20292199Y-35655319D01*
X20292199Y-34574468D01*
X20562412Y-34574468D01*
X20832625Y-34574468D01*
X20832625Y-35655319D01*
G37*
G36*
X19751774Y-35295035D02*
G01*
X19751774Y-36736170D01*
X19459043Y-36736170D01*
X19166313Y-36736170D01*
X19166313Y-35295035D01*
X19166313Y-33853900D01*
X19459043Y-33853900D01*
X19751774Y-33853900D01*
X19751774Y-35295035D01*
G37*
G36*
X11587115Y-34530643D02*
G01*
X11788552Y-34562976D01*
X11991470Y-34638501D01*
X12150391Y-34740789D01*
X12195814Y-34778711D01*
X12225414Y-34775568D01*
X12230852Y-34694036D01*
X12230877Y-34684291D01*
X12237522Y-34622173D01*
X12270636Y-34589417D01*
X12351418Y-34576642D01*
X12501064Y-34574468D01*
X12771277Y-34574468D01*
X12771277Y-35655319D01*
X12771277Y-36736170D01*
X12501064Y-36736170D01*
X12230852Y-36736170D01*
X12230852Y-36078703D01*
X12230131Y-35914999D01*
X12224376Y-35668225D01*
X12211804Y-35488951D01*
X12191144Y-35362527D01*
X12161128Y-35274305D01*
X12091281Y-35168880D01*
X11944521Y-35062229D01*
X11767543Y-35022286D01*
X11582031Y-35052461D01*
X11409665Y-35156162D01*
X11262589Y-35287502D01*
X11247374Y-36011836D01*
X11232158Y-36736170D01*
X10965902Y-36736170D01*
X10699646Y-36736170D01*
X10699646Y-36058401D01*
X10699499Y-35985880D01*
X10693895Y-35686373D01*
X10677871Y-35461858D01*
X10648293Y-35300046D01*
X10602023Y-35188645D01*
X10535925Y-35115368D01*
X10446862Y-35067923D01*
X10251934Y-35023336D01*
X10052108Y-35049641D01*
X9885543Y-35156464D01*
X9753901Y-35288106D01*
X9753901Y-36012138D01*
X9753901Y-36736170D01*
X9461171Y-36736170D01*
X9168440Y-36736170D01*
X9168440Y-36085372D01*
X9168651Y-36024227D01*
X9173705Y-35769147D01*
X9184482Y-35531335D01*
X9199623Y-35335053D01*
X9217769Y-35204564D01*
X9237332Y-35129738D01*
X9350222Y-34899266D01*
X9520271Y-34720746D01*
X9731670Y-34598873D01*
X9968608Y-34538345D01*
X10215277Y-34543857D01*
X10455866Y-34620108D01*
X10674565Y-34771793D01*
X10832346Y-34920600D01*
X10934879Y-34809146D01*
X10957837Y-34785691D01*
X11137259Y-34657341D01*
X11355087Y-34565897D01*
X11568025Y-34530421D01*
X11587115Y-34530643D01*
G37*
G36*
X63079482Y-33676529D02*
G01*
X63219882Y-33729955D01*
X63317302Y-33834032D01*
X63362427Y-33965862D01*
X63345946Y-34102551D01*
X63258546Y-34221202D01*
X63146925Y-34282152D01*
X62977261Y-34297479D01*
X62815695Y-34234148D01*
X62798272Y-34220996D01*
X62734096Y-34131001D01*
X62715603Y-33989007D01*
X62715970Y-33970001D01*
X62758653Y-33809856D01*
X62867543Y-33708891D01*
X63035883Y-33673758D01*
X63079482Y-33676529D01*
G37*
G36*
X43843760Y-33673970D02*
G01*
X43996787Y-33715037D01*
X44104779Y-33811794D01*
X44158124Y-33941864D01*
X44147211Y-34082869D01*
X44062431Y-34212430D01*
X44046545Y-34226250D01*
X43910081Y-34290101D01*
X43761169Y-34289687D01*
X43624380Y-34234254D01*
X43524286Y-34133049D01*
X43485461Y-33995318D01*
X43490291Y-33945818D01*
X43555468Y-33810090D01*
X43677349Y-33711695D01*
X43831078Y-33673758D01*
X43843760Y-33673970D01*
G37*
G36*
X35202531Y-33676529D02*
G01*
X35342932Y-33729955D01*
X35440351Y-33834032D01*
X35485477Y-33965862D01*
X35468995Y-34102551D01*
X35381595Y-34221202D01*
X35269975Y-34282152D01*
X35100311Y-34297479D01*
X34938745Y-34234148D01*
X34921321Y-34220996D01*
X34857146Y-34131001D01*
X34838653Y-33989007D01*
X34839020Y-33970001D01*
X34881703Y-33809856D01*
X34990593Y-33708891D01*
X35158933Y-33673758D01*
X35202531Y-33676529D01*
G37*
G36*
X20560427Y-33673970D02*
G01*
X20713454Y-33715037D01*
X20821445Y-33811794D01*
X20874790Y-33941864D01*
X20863878Y-34082869D01*
X20779097Y-34212430D01*
X20763211Y-34226250D01*
X20626748Y-34290101D01*
X20477835Y-34289687D01*
X20341046Y-34234254D01*
X20240953Y-34133049D01*
X20202128Y-33995318D01*
X20206957Y-33945818D01*
X20272135Y-33810090D01*
X20394016Y-33711695D01*
X20547744Y-33673758D01*
X20560427Y-33673970D01*
G37*
G36*
X55588744Y-27738305D02*
G01*
X55890451Y-27751595D01*
X56166783Y-28490113D01*
X56443114Y-29228630D01*
X56517372Y-29030538D01*
X56561042Y-28913181D01*
X56627376Y-28733810D01*
X56706718Y-28518563D01*
X56789993Y-28292021D01*
X56988356Y-27751595D01*
X57305327Y-27738407D01*
X57622299Y-27725218D01*
X57327738Y-28436456D01*
X57269031Y-28578491D01*
X57157771Y-28849016D01*
X57052010Y-29107739D01*
X56961455Y-29330877D01*
X56895815Y-29494646D01*
X56758453Y-29841598D01*
X56928973Y-30237732D01*
X56965561Y-30322805D01*
X57046705Y-30511987D01*
X57116133Y-30674497D01*
X57161864Y-30782321D01*
X57224234Y-30930778D01*
X56925952Y-30917428D01*
X56627671Y-30904078D01*
X56097368Y-29643085D01*
X56067057Y-29571016D01*
X55926907Y-29237964D01*
X55792331Y-28918431D01*
X55669195Y-28626319D01*
X55563360Y-28375532D01*
X55480691Y-28179976D01*
X55427051Y-28053553D01*
X55287037Y-27725014D01*
X55588744Y-27738305D01*
G37*
G36*
X55141215Y-28866241D02*
G01*
X55085397Y-29188028D01*
X55003855Y-29383567D01*
X54855610Y-29598637D01*
X54671803Y-29771839D01*
X54473651Y-29879203D01*
X54381313Y-29903708D01*
X54120400Y-29919329D01*
X53858623Y-29869355D01*
X53631957Y-29758926D01*
X53438298Y-29622423D01*
X53438298Y-29756601D01*
X53438248Y-29777780D01*
X53431509Y-29843030D01*
X53398389Y-29876586D01*
X53317658Y-29888988D01*
X53168086Y-29890780D01*
X52897873Y-29890780D01*
X52897873Y-28809929D01*
X53438298Y-28809929D01*
X53473398Y-29020767D01*
X53571499Y-29212049D01*
X53717060Y-29349200D01*
X53832283Y-29405167D01*
X54041634Y-29437702D01*
X54242934Y-29383117D01*
X54425345Y-29243037D01*
X54450185Y-29212551D01*
X54525617Y-29050650D01*
X54561355Y-28849945D01*
X54553987Y-28645593D01*
X54500099Y-28472753D01*
X54395015Y-28330492D01*
X54236368Y-28223152D01*
X54058608Y-28182817D01*
X53877597Y-28204450D01*
X53709198Y-28283016D01*
X53569273Y-28413475D01*
X53473686Y-28590792D01*
X53438298Y-28809929D01*
X52897873Y-28809929D01*
X52897873Y-27729078D01*
X53168086Y-27729078D01*
X53438298Y-27729078D01*
X53438298Y-27872034D01*
X53438298Y-28014991D01*
X53540243Y-27919219D01*
X53542085Y-27917497D01*
X53713693Y-27800278D01*
X53923120Y-27716272D01*
X54123643Y-27684293D01*
X54170189Y-27685371D01*
X54452653Y-27738439D01*
X54696158Y-27863531D01*
X54893735Y-28049753D01*
X55038415Y-28286208D01*
X55123232Y-28562003D01*
X55140252Y-28849945D01*
X55141215Y-28866241D01*
G37*
G36*
X49494563Y-27707694D02*
G01*
X49745272Y-27792099D01*
X49952934Y-27939624D01*
X49954829Y-27941523D01*
X50072332Y-28099138D01*
X50117764Y-28275305D01*
X50097548Y-28494680D01*
X50082599Y-28551568D01*
X50013943Y-28678886D01*
X49892140Y-28785401D01*
X49704947Y-28879994D01*
X49440118Y-28971549D01*
X49279356Y-29023293D01*
X49062055Y-29110418D01*
X48932593Y-29191517D01*
X48889717Y-29267263D01*
X48904323Y-29313439D01*
X48979522Y-29393808D01*
X49089935Y-29458748D01*
X49202846Y-29485460D01*
X49221058Y-29485168D01*
X49386287Y-29456189D01*
X49518685Y-29389402D01*
X49589936Y-29298484D01*
X49602607Y-29270514D01*
X49648485Y-29236023D01*
X49741463Y-29219494D01*
X49902906Y-29215248D01*
X50189458Y-29215248D01*
X50148920Y-29361613D01*
X50138816Y-29391469D01*
X50049353Y-29537726D01*
X49907836Y-29684898D01*
X49740976Y-29808626D01*
X49575484Y-29884551D01*
X49440699Y-29910297D01*
X49188182Y-29915837D01*
X48933118Y-29879500D01*
X48718502Y-29805263D01*
X48691476Y-29790855D01*
X48522648Y-29655565D01*
X48425471Y-29473266D01*
X48394327Y-29234061D01*
X48414125Y-29076635D01*
X48485514Y-28936732D01*
X48618181Y-28819088D01*
X48821712Y-28715394D01*
X49105689Y-28617339D01*
X49322523Y-28546031D01*
X49481149Y-28474174D01*
X49564948Y-28402247D01*
X49581413Y-28323561D01*
X49538035Y-28231430D01*
X49438101Y-28157703D01*
X49295677Y-28131197D01*
X49146287Y-28153294D01*
X49024823Y-28224468D01*
X48963821Y-28297445D01*
X48934752Y-28359574D01*
X48906050Y-28379912D01*
X48808470Y-28397773D01*
X48664540Y-28404609D01*
X48534725Y-28400795D01*
X48427908Y-28382267D01*
X48394327Y-28346579D01*
X48395126Y-28333375D01*
X48429748Y-28223040D01*
X48500924Y-28085916D01*
X48588471Y-27956631D01*
X48672205Y-27869815D01*
X48707998Y-27845401D01*
X48953542Y-27733125D01*
X49223191Y-27687630D01*
X49494563Y-27707694D01*
G37*
G36*
X37708257Y-29278072D02*
G01*
X37827438Y-29353623D01*
X37915563Y-29453252D01*
X37946100Y-29598049D01*
X37922295Y-29728980D01*
X37827438Y-29842475D01*
X37716710Y-29914488D01*
X37610671Y-29929609D01*
X37476930Y-29884272D01*
X37381722Y-29812243D01*
X37317463Y-29684039D01*
X37312043Y-29538965D01*
X37365428Y-29405351D01*
X37477588Y-29311526D01*
X37601437Y-29267953D01*
X37708257Y-29278072D01*
G37*
G36*
X36179589Y-27718340D02*
G01*
X36428162Y-27813076D01*
X36646214Y-27970327D01*
X36818402Y-28190835D01*
X36821118Y-28195612D01*
X36948720Y-28503893D01*
X36986674Y-28820407D01*
X36935127Y-29146362D01*
X36863406Y-29329571D01*
X36709020Y-29565888D01*
X36510269Y-29752023D01*
X36284921Y-29868248D01*
X36089905Y-29913269D01*
X35794423Y-29918536D01*
X35515668Y-29852722D01*
X35268956Y-29722333D01*
X35069604Y-29533877D01*
X34932929Y-29293860D01*
X34885918Y-29170212D01*
X35180441Y-29170212D01*
X35181666Y-29170212D01*
X35344774Y-29173818D01*
X35447412Y-29191064D01*
X35518923Y-29231660D01*
X35588649Y-29305319D01*
X35654326Y-29373930D01*
X35753349Y-29427131D01*
X35894916Y-29440425D01*
X36037712Y-29423956D01*
X36212323Y-29338600D01*
X36333954Y-29184790D01*
X36399288Y-28967398D01*
X36405006Y-28691297D01*
X36369526Y-28499497D01*
X36274896Y-28321901D01*
X36124808Y-28215104D01*
X35919570Y-28179432D01*
X35808792Y-28190339D01*
X35661523Y-28239642D01*
X35555120Y-28316241D01*
X35514185Y-28406364D01*
X35513915Y-28408159D01*
X35466646Y-28429128D01*
X35353868Y-28443996D01*
X35198332Y-28449645D01*
X34882480Y-28449645D01*
X34952920Y-28280762D01*
X35015918Y-28156520D01*
X35186950Y-27949769D01*
X35404176Y-27801835D01*
X35652253Y-27713459D01*
X35915839Y-27685381D01*
X36179589Y-27718340D01*
G37*
G36*
X34612596Y-28809929D02*
G01*
X34601920Y-28987839D01*
X34524727Y-29290389D01*
X34376423Y-29542642D01*
X34161118Y-29738616D01*
X33882920Y-29872328D01*
X33815307Y-29891856D01*
X33514206Y-29924524D01*
X33212271Y-29877878D01*
X32930650Y-29757312D01*
X32690492Y-29568219D01*
X32689542Y-29567227D01*
X32527694Y-29349322D01*
X32435793Y-29099242D01*
X32413295Y-28865750D01*
X32971284Y-28865750D01*
X33014731Y-29071950D01*
X33111917Y-29248247D01*
X33260938Y-29372110D01*
X33262902Y-29373116D01*
X33403963Y-29420688D01*
X33557409Y-29440425D01*
X33702350Y-29408390D01*
X33858164Y-29306353D01*
X33982280Y-29154980D01*
X34051993Y-28975608D01*
X34066336Y-28762282D01*
X34009353Y-28527275D01*
X33871342Y-28329001D01*
X33770817Y-28240502D01*
X33662112Y-28191376D01*
X33515321Y-28179432D01*
X33432694Y-28182555D01*
X33294033Y-28216905D01*
X33170624Y-28303280D01*
X33053219Y-28453765D01*
X32983478Y-28652178D01*
X32971284Y-28865750D01*
X32413295Y-28865750D01*
X32406738Y-28797700D01*
X32409131Y-28719920D01*
X32467913Y-28417125D01*
X32596903Y-28155835D01*
X32784685Y-27944064D01*
X33019842Y-27789828D01*
X33290960Y-27701141D01*
X33586622Y-27686020D01*
X33895412Y-27752479D01*
X34030846Y-27808947D01*
X34281698Y-27977269D01*
X34463902Y-28202607D01*
X34575015Y-28481361D01*
X34607146Y-28762282D01*
X34612596Y-28809929D01*
G37*
G36*
X52357447Y-28449645D02*
G01*
X52357447Y-29890780D01*
X52087235Y-29890780D01*
X51817022Y-29890780D01*
X51817022Y-29462943D01*
X51815674Y-29352339D01*
X51807805Y-29189135D01*
X51794473Y-29076873D01*
X51777485Y-29035106D01*
X51777373Y-29035108D01*
X51735691Y-29069197D01*
X51652006Y-29161177D01*
X51538412Y-29297081D01*
X51407004Y-29462943D01*
X51076061Y-29890780D01*
X50720459Y-29890780D01*
X50589338Y-29892199D01*
X50490322Y-29890794D01*
X50433995Y-29877139D01*
X50422922Y-29841802D01*
X50459666Y-29775351D01*
X50546792Y-29668351D01*
X50686866Y-29511370D01*
X50882452Y-29294975D01*
X50909637Y-29264643D01*
X51053133Y-29100626D01*
X51169702Y-28960943D01*
X51247978Y-28859563D01*
X51276596Y-28810460D01*
X51267646Y-28786923D01*
X51231725Y-28734013D01*
X51163078Y-28647277D01*
X51056152Y-28520132D01*
X50905398Y-28345994D01*
X50705263Y-28118281D01*
X50450196Y-27830407D01*
X50360186Y-27729078D01*
X50722871Y-27729078D01*
X51085556Y-27729078D01*
X51417512Y-28156471D01*
X51418924Y-28158288D01*
X51550030Y-28323640D01*
X51662391Y-28459048D01*
X51744098Y-28550580D01*
X51783245Y-28584308D01*
X51792733Y-28552588D01*
X51802433Y-28444097D01*
X51810126Y-28272340D01*
X51815195Y-28051717D01*
X51817022Y-27796631D01*
X51817022Y-27008510D01*
X52087235Y-27008510D01*
X52357447Y-27008510D01*
X52357447Y-28449645D01*
G37*
G36*
X47943972Y-28449645D02*
G01*
X47943972Y-29890780D01*
X47673759Y-29890780D01*
X47403547Y-29890780D01*
X47402472Y-29316578D01*
X47398001Y-29035088D01*
X47378349Y-28737178D01*
X47339633Y-28513055D01*
X47278141Y-28353969D01*
X47190157Y-28251171D01*
X47071970Y-28195908D01*
X46919863Y-28179432D01*
X46900202Y-28179540D01*
X46741828Y-28192732D01*
X46621104Y-28235029D01*
X46533190Y-28316523D01*
X46473241Y-28447306D01*
X46436416Y-28637471D01*
X46417872Y-28897112D01*
X46412766Y-29236319D01*
X46412766Y-29890780D01*
X46142554Y-29890780D01*
X45872341Y-29890780D01*
X45873330Y-29113918D01*
X45873973Y-28981115D01*
X45882638Y-28646135D01*
X45904939Y-28384613D01*
X45945395Y-28184390D01*
X46008528Y-28033308D01*
X46098858Y-27919207D01*
X46220906Y-27829928D01*
X46379192Y-27753313D01*
X46573979Y-27699646D01*
X46822340Y-27695109D01*
X47056870Y-27753325D01*
X47248825Y-27870422D01*
X47319903Y-27927131D01*
X47372673Y-27954255D01*
X47382552Y-27929279D01*
X47393406Y-27831001D01*
X47400809Y-27675501D01*
X47403547Y-27481382D01*
X47403547Y-27008510D01*
X47673759Y-27008510D01*
X47943972Y-27008510D01*
X47943972Y-28449645D01*
G37*
G36*
X45331915Y-28809929D02*
G01*
X45331915Y-29890780D01*
X45061703Y-29890780D01*
X44791490Y-29890780D01*
X44791490Y-28809929D01*
X44791490Y-27729078D01*
X45061703Y-27729078D01*
X45331915Y-27729078D01*
X45331915Y-28809929D01*
G37*
G36*
X44160993Y-27458865D02*
G01*
X44160993Y-27729078D01*
X44296100Y-27729078D01*
X44362819Y-27731606D01*
X44410105Y-27754484D01*
X44428254Y-27820955D01*
X44431206Y-27954255D01*
X44429689Y-28065453D01*
X44415962Y-28144264D01*
X44376079Y-28174513D01*
X44296100Y-28179432D01*
X44160993Y-28179432D01*
X44160923Y-28798670D01*
X44160913Y-28814213D01*
X44155394Y-29122406D01*
X44136810Y-29355385D01*
X44100857Y-29526986D01*
X44043232Y-29651047D01*
X43959629Y-29741405D01*
X43845745Y-29811898D01*
X43832346Y-29818296D01*
X43645620Y-29871663D01*
X43406649Y-29890710D01*
X43125178Y-29890780D01*
X43125178Y-29665602D01*
X43125178Y-29440425D01*
X43302103Y-29440425D01*
X43332356Y-29440169D01*
X43444938Y-29429492D01*
X43523855Y-29393627D01*
X43574993Y-29319618D01*
X43604235Y-29194508D01*
X43617465Y-29005340D01*
X43620568Y-28739159D01*
X43620568Y-28179432D01*
X43372873Y-28179432D01*
X43125178Y-28179432D01*
X43125178Y-27954255D01*
X43125178Y-27729078D01*
X43372873Y-27729078D01*
X43620568Y-27729078D01*
X43620568Y-27458865D01*
X43620568Y-27188652D01*
X43890781Y-27188652D01*
X44160993Y-27188652D01*
X44160993Y-27458865D01*
G37*
G36*
X42719859Y-28449645D02*
G01*
X42719859Y-29890780D01*
X42449646Y-29890780D01*
X42179433Y-29890780D01*
X42179433Y-29213011D01*
X42179405Y-29182153D01*
X42173623Y-28854504D01*
X42154368Y-28605439D01*
X42116713Y-28424689D01*
X42055730Y-28301984D01*
X41966492Y-28227053D01*
X41844071Y-28189626D01*
X41683539Y-28179432D01*
X41624118Y-28181399D01*
X41487406Y-28216190D01*
X41365331Y-28311074D01*
X41233688Y-28442716D01*
X41233688Y-29166748D01*
X41233688Y-29890780D01*
X40940958Y-29890780D01*
X40648227Y-29890780D01*
X40648227Y-29200904D01*
X40648832Y-29058801D01*
X40657413Y-28735614D01*
X40678767Y-28482881D01*
X40716223Y-28286605D01*
X40773112Y-28132790D01*
X40852762Y-28007438D01*
X40958503Y-27896551D01*
X41034111Y-27836491D01*
X41264832Y-27725948D01*
X41520050Y-27689700D01*
X41779073Y-27728766D01*
X42021208Y-27844166D01*
X42179433Y-27951540D01*
X42179433Y-27480025D01*
X42179433Y-27008510D01*
X42449646Y-27008510D01*
X42719859Y-27008510D01*
X42719859Y-28449645D01*
G37*
G36*
X40152837Y-28449645D02*
G01*
X40152837Y-29890780D01*
X39884200Y-29890780D01*
X39615563Y-29890780D01*
X39602728Y-29440352D01*
X39589894Y-28989925D01*
X39233970Y-29440352D01*
X38878045Y-29890780D01*
X38516235Y-29890780D01*
X38154426Y-29890780D01*
X38266540Y-29766932D01*
X38336716Y-29689160D01*
X38453058Y-29559922D01*
X38597316Y-29399489D01*
X38753043Y-29226143D01*
X39127432Y-28809202D01*
X38776005Y-28415505D01*
X38651266Y-28276072D01*
X38501567Y-28109501D01*
X38374664Y-27969105D01*
X38289093Y-27875443D01*
X38153608Y-27729078D01*
X38518576Y-27729078D01*
X38883543Y-27729078D01*
X39247978Y-28185200D01*
X39612412Y-28641322D01*
X39612412Y-27824916D01*
X39612412Y-27008510D01*
X39882625Y-27008510D01*
X40152837Y-27008510D01*
X40152837Y-28449645D01*
G37*
G36*
X29355836Y-27691131D02*
G01*
X29571743Y-27744858D01*
X29776986Y-27843447D01*
X29932183Y-27969844D01*
X30029944Y-28082279D01*
X30176481Y-27935741D01*
X30291867Y-27840988D01*
X30525430Y-27731971D01*
X30783353Y-27693918D01*
X31043584Y-27728766D01*
X31284072Y-27838452D01*
X31460993Y-27955533D01*
X31460993Y-27842305D01*
X31461001Y-27837816D01*
X31467517Y-27776946D01*
X31500619Y-27744442D01*
X31581464Y-27731441D01*
X31731206Y-27729078D01*
X32001419Y-27729078D01*
X32001419Y-28809929D01*
X32001419Y-29890780D01*
X31731206Y-29890780D01*
X31460993Y-29890780D01*
X31459919Y-29316578D01*
X31458166Y-29122164D01*
X31447387Y-28842618D01*
X31424585Y-28631980D01*
X31387173Y-28476975D01*
X31332567Y-28364327D01*
X31258180Y-28280762D01*
X31111467Y-28200697D01*
X30934124Y-28180250D01*
X30759283Y-28219871D01*
X30612700Y-28313480D01*
X30520131Y-28454997D01*
X30514854Y-28473706D01*
X30497297Y-28591962D01*
X30483128Y-28773715D01*
X30473661Y-28998158D01*
X30470213Y-29244486D01*
X30470213Y-29890780D01*
X30200001Y-29890780D01*
X29929788Y-29890780D01*
X29929788Y-29233313D01*
X29925458Y-28917307D01*
X29910212Y-28674559D01*
X29880937Y-28496911D01*
X29834519Y-28371978D01*
X29767846Y-28287372D01*
X29677803Y-28230708D01*
X29492666Y-28182434D01*
X29300711Y-28198846D01*
X29141821Y-28280762D01*
X29097014Y-28325410D01*
X29034173Y-28423856D01*
X28989646Y-28558921D01*
X28960845Y-28743880D01*
X28945185Y-28992007D01*
X28940082Y-29316578D01*
X28939008Y-29890780D01*
X28668795Y-29890780D01*
X28398582Y-29890780D01*
X28398833Y-29181471D01*
X28399601Y-29054272D01*
X28405273Y-28803035D01*
X28415554Y-28580785D01*
X28429358Y-28407880D01*
X28445599Y-28304678D01*
X28469669Y-28232927D01*
X28599281Y-28015410D01*
X28789993Y-27842085D01*
X29022319Y-27727454D01*
X29276774Y-27686020D01*
X29355836Y-27691131D01*
G37*
G36*
X45110333Y-26831139D02*
G01*
X45250733Y-26884565D01*
X45348153Y-26988641D01*
X45393278Y-27120472D01*
X45376797Y-27257161D01*
X45289397Y-27375812D01*
X45177777Y-27436762D01*
X45008112Y-27452089D01*
X44846546Y-27388758D01*
X44829123Y-27375606D01*
X44764947Y-27285611D01*
X44746454Y-27143617D01*
X44746821Y-27124611D01*
X44789504Y-26964465D01*
X44898394Y-26863501D01*
X45066734Y-26828368D01*
X45110333Y-26831139D01*
G37*
G36*
X67030714Y-21134828D02*
G01*
X66968249Y-21519561D01*
X66833238Y-21879313D01*
X66803296Y-21933337D01*
X66659790Y-22125982D01*
X66473346Y-22312180D01*
X66271277Y-22467016D01*
X66080897Y-22565578D01*
X65951666Y-22603392D01*
X65641859Y-22638563D01*
X65333247Y-22604650D01*
X65048614Y-22505604D01*
X64810746Y-22345374D01*
X64747392Y-22288420D01*
X64663799Y-22217447D01*
X64623950Y-22189716D01*
X64618923Y-22198974D01*
X64610444Y-22271461D01*
X64607093Y-22392375D01*
X64607093Y-22595035D01*
X64111703Y-22595035D01*
X63616313Y-22595035D01*
X63616313Y-20996276D01*
X63616313Y-20972134D01*
X64646146Y-20972134D01*
X64654144Y-21138735D01*
X64711821Y-21373834D01*
X64829729Y-21551768D01*
X65013305Y-21683067D01*
X65075909Y-21712488D01*
X65218151Y-21764005D01*
X65327660Y-21784397D01*
X65457360Y-21764189D01*
X65645042Y-21681800D01*
X65813686Y-21555588D01*
X65929276Y-21406898D01*
X65994056Y-21217362D01*
X66019254Y-20982621D01*
X65997721Y-20752461D01*
X65929451Y-20563087D01*
X65881270Y-20490268D01*
X65710981Y-20326473D01*
X65508518Y-20232287D01*
X65291586Y-20207838D01*
X65077891Y-20253259D01*
X64885141Y-20368680D01*
X64731041Y-20554232D01*
X64670301Y-20718677D01*
X64646146Y-20972134D01*
X63616313Y-20972134D01*
X63616313Y-19397517D01*
X64111703Y-19397517D01*
X64607093Y-19397517D01*
X64607093Y-19605417D01*
X64607093Y-19813317D01*
X64786231Y-19651476D01*
X64791856Y-19646416D01*
X65028539Y-19474447D01*
X65280909Y-19378221D01*
X65577155Y-19346882D01*
X65641182Y-19347298D01*
X65986088Y-19388419D01*
X66278584Y-19499194D01*
X66528065Y-19684472D01*
X66743929Y-19949104D01*
X66791900Y-20026657D01*
X66941633Y-20368784D01*
X67021540Y-20744705D01*
X67027135Y-20982621D01*
X67030714Y-21134828D01*
G37*
G36*
X58259235Y-19349860D02*
G01*
X58506139Y-19374015D01*
X58696754Y-19416483D01*
X58848527Y-19478316D01*
X59084928Y-19632649D01*
X59262885Y-19828369D01*
X59378565Y-20052167D01*
X59428135Y-20290733D01*
X59407762Y-20530759D01*
X59313612Y-20758934D01*
X59141854Y-20961949D01*
X59106700Y-20991553D01*
X59030339Y-21045622D01*
X58936394Y-21095454D01*
X58810937Y-21146392D01*
X58640040Y-21203779D01*
X58409778Y-21272958D01*
X58106222Y-21359273D01*
X58024262Y-21384682D01*
X57836111Y-21468139D01*
X57714690Y-21564247D01*
X57671632Y-21664828D01*
X57683109Y-21719922D01*
X57763268Y-21811295D01*
X57904097Y-21873814D01*
X58086829Y-21896985D01*
X58149180Y-21896237D01*
X58270401Y-21880945D01*
X58359521Y-21831244D01*
X58458416Y-21728102D01*
X58604404Y-21559219D01*
X59061245Y-21559219D01*
X59242979Y-21560984D01*
X59407280Y-21573408D01*
X59498525Y-21605850D01*
X59526297Y-21667591D01*
X59500179Y-21767912D01*
X59429754Y-21916093D01*
X59353957Y-22043594D01*
X59137861Y-22284960D01*
X58861454Y-22471980D01*
X58539264Y-22593599D01*
X58342160Y-22623307D01*
X58086751Y-22629313D01*
X57818587Y-22610956D01*
X57571395Y-22570642D01*
X57378901Y-22510779D01*
X57337302Y-22491589D01*
X57080849Y-22335846D01*
X56904818Y-22147318D01*
X56803434Y-21917722D01*
X56770922Y-21638775D01*
X56787533Y-21445363D01*
X56858612Y-21238667D01*
X56991992Y-21064848D01*
X57194523Y-20917726D01*
X57473056Y-20791115D01*
X57834440Y-20678834D01*
X58032712Y-20622251D01*
X58268649Y-20536437D01*
X58421900Y-20450446D01*
X58496889Y-20361533D01*
X58498041Y-20266951D01*
X58452977Y-20183103D01*
X58332648Y-20099943D01*
X58145917Y-20073049D01*
X57976316Y-20096346D01*
X57814533Y-20182830D01*
X57714939Y-20325289D01*
X57708932Y-20340600D01*
X57683918Y-20384498D01*
X57640730Y-20411777D01*
X57561395Y-20426381D01*
X57427940Y-20432252D01*
X57222392Y-20433333D01*
X57054255Y-20432768D01*
X56897829Y-20425783D01*
X56809242Y-20403640D01*
X56775753Y-20357570D01*
X56784620Y-20278807D01*
X56823101Y-20158582D01*
X56949190Y-19892618D01*
X57147934Y-19663118D01*
X57417447Y-19487423D01*
X57451725Y-19470707D01*
X57600974Y-19405379D01*
X57733761Y-19367744D01*
X57885544Y-19350352D01*
X58091781Y-19345754D01*
X58259235Y-19349860D01*
G37*
G36*
X39273273Y-21109593D02*
G01*
X39266538Y-21299864D01*
X39248124Y-21442057D01*
X39213282Y-21564714D01*
X39157262Y-21696381D01*
X39022811Y-21936067D01*
X38780592Y-22221543D01*
X38481969Y-22437357D01*
X38129423Y-22581371D01*
X37992898Y-22610198D01*
X37715807Y-22630558D01*
X37416852Y-22615997D01*
X37131947Y-22569104D01*
X36897008Y-22492470D01*
X36850202Y-22470076D01*
X36550780Y-22277884D01*
X36297571Y-22029700D01*
X36111827Y-21745734D01*
X36108903Y-21739771D01*
X36053742Y-21618458D01*
X36018213Y-21508898D01*
X35998080Y-21385645D01*
X35989107Y-21223253D01*
X35987800Y-21078505D01*
X36968643Y-21078505D01*
X36976181Y-21146344D01*
X37031059Y-21364987D01*
X37138748Y-21534648D01*
X37315145Y-21683067D01*
X37327829Y-21691464D01*
X37531214Y-21772609D01*
X37744949Y-21769758D01*
X37948264Y-21682914D01*
X37996173Y-21648459D01*
X38154073Y-21482385D01*
X38244669Y-21272699D01*
X38274937Y-21004923D01*
X38258698Y-20778028D01*
X38184284Y-20534969D01*
X38052642Y-20356310D01*
X37867066Y-20246126D01*
X37630852Y-20208492D01*
X37601081Y-20209046D01*
X37369353Y-20257250D01*
X37183557Y-20377085D01*
X37050381Y-20559765D01*
X36976513Y-20796501D01*
X36968643Y-21078505D01*
X35987800Y-21078505D01*
X35987057Y-20996276D01*
X35988872Y-20785859D01*
X35997595Y-20615335D01*
X36017343Y-20485790D01*
X36052214Y-20371447D01*
X36106309Y-20246527D01*
X36248752Y-20002646D01*
X36489831Y-19737987D01*
X36785549Y-19536938D01*
X37126762Y-19403995D01*
X37504325Y-19343653D01*
X37909094Y-19360406D01*
X38024152Y-19379976D01*
X38382049Y-19496109D01*
X38693113Y-19686065D01*
X38949738Y-19944271D01*
X39144317Y-20265156D01*
X39184415Y-20355678D01*
X39231248Y-20485268D01*
X39258228Y-20615343D01*
X39270637Y-20775735D01*
X39273757Y-20996276D01*
X39273720Y-21004923D01*
X39273273Y-21109593D01*
G37*
G36*
X17791011Y-20688450D02*
G01*
X17806768Y-21104439D01*
X17784782Y-21321729D01*
X17687694Y-21688550D01*
X17521435Y-22005448D01*
X17290871Y-22266128D01*
X17000866Y-22464291D01*
X16656285Y-22593641D01*
X16629740Y-22599896D01*
X16356272Y-22631261D01*
X16048559Y-22620090D01*
X15745196Y-22569977D01*
X15484777Y-22484517D01*
X15296390Y-22382421D01*
X15030784Y-22168439D01*
X14822703Y-21907057D01*
X14687955Y-21615514D01*
X14677931Y-21577641D01*
X14683366Y-21546764D01*
X14721181Y-21527992D01*
X14805800Y-21518313D01*
X14951644Y-21514714D01*
X15173136Y-21514184D01*
X15689575Y-21514184D01*
X15847199Y-21671808D01*
X15956760Y-21768320D01*
X16063159Y-21817269D01*
X16200727Y-21829264D01*
X16211830Y-21829163D01*
X16434672Y-21787627D01*
X16623367Y-21679706D01*
X16754729Y-21518412D01*
X16759666Y-21508890D01*
X16801039Y-21427710D01*
X16824324Y-21365061D01*
X16820524Y-21318546D01*
X16780640Y-21285767D01*
X16695676Y-21264326D01*
X16556633Y-21251823D01*
X16354514Y-21245862D01*
X16080322Y-21244044D01*
X15725058Y-21243971D01*
X14625648Y-21243971D01*
X14598409Y-21075088D01*
X14587204Y-20937204D01*
X14612409Y-20658510D01*
X15598747Y-20658510D01*
X16211608Y-20658510D01*
X16435951Y-20656378D01*
X16649434Y-20647685D01*
X16780120Y-20632547D01*
X16824469Y-20611238D01*
X16805385Y-20541009D01*
X16759217Y-20437784D01*
X16739107Y-20402271D01*
X16603354Y-20254809D01*
X16427851Y-20165564D01*
X16231895Y-20132880D01*
X16034783Y-20155103D01*
X15855812Y-20230577D01*
X15714281Y-20357649D01*
X15629485Y-20534663D01*
X15598747Y-20658510D01*
X14612409Y-20658510D01*
X14612691Y-20655394D01*
X14689591Y-20359602D01*
X14808779Y-20080657D01*
X14961133Y-19849387D01*
X15060498Y-19750273D01*
X15258201Y-19603795D01*
X15482992Y-19478407D01*
X15698147Y-19396668D01*
X15729525Y-19388865D01*
X15997623Y-19350761D01*
X16296199Y-19347657D01*
X16586847Y-19378065D01*
X16831165Y-19440501D01*
X17032268Y-19531506D01*
X17320883Y-19735432D01*
X17545354Y-19999318D01*
X17702968Y-20318533D01*
X17772634Y-20611238D01*
X17791011Y-20688450D01*
G37*
G36*
X70845082Y-18551603D02*
G01*
X70959993Y-18558270D01*
X71002128Y-18568611D01*
X70993672Y-18589759D01*
X70949668Y-18682290D01*
X70872357Y-18839018D01*
X70766567Y-19050320D01*
X70637125Y-19306572D01*
X70488859Y-19598148D01*
X70326596Y-19915425D01*
X69651064Y-21232699D01*
X69651064Y-21913867D01*
X69651064Y-22595035D01*
X69155674Y-22595035D01*
X68660284Y-22595035D01*
X68660284Y-21944118D01*
X68660284Y-21293202D01*
X67962235Y-19946546D01*
X67840118Y-19710493D01*
X67684178Y-19407597D01*
X67545807Y-19137142D01*
X67429812Y-18908614D01*
X67341003Y-18731503D01*
X67284191Y-18615296D01*
X67264185Y-18569481D01*
X67264327Y-18568789D01*
X67311018Y-18558300D01*
X67429491Y-18551586D01*
X67602487Y-18549205D01*
X67812745Y-18551716D01*
X68361305Y-18564361D01*
X68725946Y-19361221D01*
X68738136Y-19387843D01*
X68851145Y-19633048D01*
X68951563Y-19848170D01*
X69033233Y-20020225D01*
X69089997Y-20136227D01*
X69115699Y-20183192D01*
X69118319Y-20182984D01*
X69151200Y-20135476D01*
X69213967Y-20020285D01*
X69300621Y-19849183D01*
X69405168Y-19633941D01*
X69521610Y-19386332D01*
X69902410Y-18564361D01*
X70452269Y-18551716D01*
X70465889Y-18551412D01*
X70674634Y-18549141D01*
X70845082Y-18551603D01*
G37*
G36*
X62940781Y-20455851D02*
G01*
X62940781Y-22595035D01*
X62446595Y-22595035D01*
X61952408Y-22595035D01*
X61939946Y-21933145D01*
X61927483Y-21271255D01*
X61454610Y-21932080D01*
X60981738Y-22592905D01*
X60359737Y-22593970D01*
X59737737Y-22595035D01*
X60333692Y-21885726D01*
X60370002Y-21842519D01*
X60552942Y-21625097D01*
X60718599Y-21428642D01*
X60856821Y-21265165D01*
X60957458Y-21146674D01*
X61010358Y-21085179D01*
X61033997Y-21054760D01*
X61044582Y-21020461D01*
X61034541Y-20974305D01*
X60997701Y-20906736D01*
X60927891Y-20808196D01*
X60818940Y-20669127D01*
X60664678Y-20479973D01*
X60458932Y-20231175D01*
X60378458Y-20133998D01*
X60200256Y-19918261D01*
X60045191Y-19729786D01*
X59921870Y-19579075D01*
X59838901Y-19476633D01*
X59804890Y-19432963D01*
X59806050Y-19429148D01*
X59862691Y-19416731D01*
X59989328Y-19406688D01*
X60170323Y-19399968D01*
X60390037Y-19397517D01*
X60997092Y-19397517D01*
X61462287Y-20032020D01*
X61927483Y-20666523D01*
X61939489Y-19491595D01*
X61951496Y-18316666D01*
X62446138Y-18316666D01*
X62940781Y-18316666D01*
X62940781Y-20455851D01*
G37*
G36*
X56140426Y-20455851D02*
G01*
X56140426Y-22595035D01*
X55645036Y-22595035D01*
X55149646Y-22595035D01*
X55149646Y-21614811D01*
X55148936Y-21295217D01*
X55146100Y-21040931D01*
X55140196Y-20851167D01*
X55130278Y-20712941D01*
X55115404Y-20613270D01*
X55094631Y-20539173D01*
X55067015Y-20477666D01*
X55045727Y-20440648D01*
X54903429Y-20287417D01*
X54722031Y-20197946D01*
X54522078Y-20172236D01*
X54324112Y-20210285D01*
X54148678Y-20312095D01*
X54016320Y-20477666D01*
X53989492Y-20537036D01*
X53968510Y-20610517D01*
X53953459Y-20709147D01*
X53943394Y-20845909D01*
X53937373Y-21033785D01*
X53934452Y-21285758D01*
X53933688Y-21614811D01*
X53933688Y-22595035D01*
X53435531Y-22595035D01*
X52937373Y-22595035D01*
X52951399Y-21435372D01*
X52952706Y-21329049D01*
X52957399Y-20995976D01*
X52962804Y-20737177D01*
X52969974Y-20540267D01*
X52979962Y-20392859D01*
X52993823Y-20282568D01*
X53012609Y-20197007D01*
X53037374Y-20123790D01*
X53069170Y-20050531D01*
X53103605Y-19980572D01*
X53290727Y-19710970D01*
X53528426Y-19514445D01*
X53811899Y-19394134D01*
X54136348Y-19353173D01*
X54248981Y-19355395D01*
X54512000Y-19387961D01*
X54733918Y-19466872D01*
X54945927Y-19601704D01*
X55149646Y-19757206D01*
X55149646Y-19036936D01*
X55149646Y-18316666D01*
X55645036Y-18316666D01*
X56140426Y-18316666D01*
X56140426Y-20455851D01*
G37*
G36*
X52267376Y-20996276D02*
G01*
X52267376Y-22595035D01*
X51771986Y-22595035D01*
X51276596Y-22595035D01*
X51276596Y-20996276D01*
X51276596Y-19397517D01*
X51771986Y-19397517D01*
X52267376Y-19397517D01*
X52267376Y-20996276D01*
G37*
G36*
X50420922Y-18992198D02*
G01*
X50420922Y-19397517D01*
X50601064Y-19397517D01*
X50781206Y-19397517D01*
X50781206Y-19802836D01*
X50781206Y-20208156D01*
X50606002Y-20208156D01*
X50430798Y-20208156D01*
X50413758Y-21030053D01*
X50409525Y-21220514D01*
X50401978Y-21470751D01*
X50392100Y-21656237D01*
X50378046Y-21792715D01*
X50357969Y-21895931D01*
X50330024Y-21981629D01*
X50292366Y-22065554D01*
X50173440Y-22253117D01*
X49984799Y-22417405D01*
X49730090Y-22530414D01*
X49702634Y-22537994D01*
X49551115Y-22564500D01*
X49354102Y-22583756D01*
X49146981Y-22592022D01*
X48751230Y-22595035D01*
X48764179Y-22178457D01*
X48777128Y-21761879D01*
X49054897Y-21739361D01*
X49185138Y-21725032D01*
X49308224Y-21702599D01*
X49370145Y-21679438D01*
X49378416Y-21655190D01*
X49391954Y-21552538D01*
X49404468Y-21385851D01*
X49414849Y-21171310D01*
X49421982Y-20925094D01*
X49436340Y-20208156D01*
X49095475Y-20208156D01*
X48754610Y-20208156D01*
X48754610Y-19804809D01*
X48754610Y-19401463D01*
X49081118Y-19388231D01*
X49407625Y-19374999D01*
X49420637Y-18980939D01*
X49433649Y-18586879D01*
X49927286Y-18586879D01*
X50420922Y-18586879D01*
X50420922Y-18992198D01*
G37*
G36*
X48214185Y-20455851D02*
G01*
X48214185Y-22595035D01*
X47718795Y-22595035D01*
X47223405Y-22595035D01*
X47223405Y-21614811D01*
X47222695Y-21295217D01*
X47219859Y-21040931D01*
X47213955Y-20851167D01*
X47204037Y-20712941D01*
X47189163Y-20613270D01*
X47168390Y-20539173D01*
X47140773Y-20477666D01*
X47119486Y-20440648D01*
X46977188Y-20287417D01*
X46795790Y-20197946D01*
X46595837Y-20172236D01*
X46397871Y-20210285D01*
X46222437Y-20312095D01*
X46090079Y-20477666D01*
X46063251Y-20537036D01*
X46042269Y-20610517D01*
X46027217Y-20709147D01*
X46017153Y-20845909D01*
X46011132Y-21033785D01*
X46008211Y-21285758D01*
X46007447Y-21614811D01*
X46007447Y-22595035D01*
X45509290Y-22595035D01*
X45011132Y-22595035D01*
X45025158Y-21435372D01*
X45026465Y-21329049D01*
X45031158Y-20995976D01*
X45036563Y-20737177D01*
X45043733Y-20540267D01*
X45053721Y-20392859D01*
X45067582Y-20282568D01*
X45086368Y-20197007D01*
X45111133Y-20123790D01*
X45142929Y-20050531D01*
X45177364Y-19980572D01*
X45364486Y-19710970D01*
X45602184Y-19514445D01*
X45885658Y-19394134D01*
X46210107Y-19353173D01*
X46322740Y-19355395D01*
X46585759Y-19387961D01*
X46807677Y-19466872D01*
X47019686Y-19601704D01*
X47223405Y-19757206D01*
X47223405Y-19036936D01*
X47223405Y-18316666D01*
X47718795Y-18316666D01*
X48214185Y-18316666D01*
X48214185Y-20455851D01*
G37*
G36*
X41446123Y-19418627D02*
G01*
X42111880Y-20295410D01*
X42124091Y-19418627D01*
X42136302Y-18541843D01*
X42630740Y-18541843D01*
X43125178Y-18541843D01*
X43125178Y-20568439D01*
X43125178Y-22595035D01*
X42630740Y-22595035D01*
X42136302Y-22595035D01*
X42124091Y-21715293D01*
X42111880Y-20835552D01*
X41443777Y-21715293D01*
X40775675Y-22595035D01*
X40164546Y-22595035D01*
X40151515Y-22595034D01*
X39911477Y-22594310D01*
X39748599Y-22591012D01*
X39650536Y-22583347D01*
X39604945Y-22569522D01*
X39599482Y-22547744D01*
X39621802Y-22516223D01*
X39649978Y-22481972D01*
X39730804Y-22380963D01*
X39852495Y-22227457D01*
X40006578Y-22032181D01*
X40184576Y-21805859D01*
X40378015Y-21559219D01*
X40519558Y-21378662D01*
X40702008Y-21146417D01*
X40862575Y-20942591D01*
X40992862Y-20777820D01*
X41084471Y-20662739D01*
X41129006Y-20607986D01*
X41142550Y-20580767D01*
X41138580Y-20539793D01*
X41110922Y-20477691D01*
X41054076Y-20386317D01*
X40962541Y-20257525D01*
X40830819Y-20083173D01*
X40653408Y-19855114D01*
X40424809Y-19565206D01*
X40408809Y-19544981D01*
X40209145Y-19291581D01*
X40029682Y-19062019D01*
X39877600Y-18865620D01*
X39760080Y-18711710D01*
X39684302Y-18609614D01*
X39657447Y-18568656D01*
X39657918Y-18567554D01*
X39708382Y-18557529D01*
X39830085Y-18549358D01*
X40005951Y-18543858D01*
X40218907Y-18541843D01*
X40780367Y-18541843D01*
X41446123Y-19418627D01*
G37*
G36*
X33780754Y-19381072D02*
G01*
X34061931Y-19473873D01*
X34286969Y-19625450D01*
X34433334Y-19762366D01*
X34433334Y-19579942D01*
X34433334Y-19397517D01*
X34928724Y-19397517D01*
X35424114Y-19397517D01*
X35424114Y-20996276D01*
X35424114Y-22595035D01*
X34928724Y-22595035D01*
X34433334Y-22595035D01*
X34433334Y-21610915D01*
X34433129Y-21349810D01*
X34431658Y-21088533D01*
X34427744Y-20894218D01*
X34420220Y-20753931D01*
X34407918Y-20654742D01*
X34389668Y-20583716D01*
X34364302Y-20527921D01*
X34330652Y-20474426D01*
X34217241Y-20340764D01*
X34045602Y-20240587D01*
X33825355Y-20209483D01*
X33647759Y-20228405D01*
X33467312Y-20312837D01*
X33320058Y-20474426D01*
X33292846Y-20516764D01*
X33265813Y-20570984D01*
X33246144Y-20637679D01*
X33232672Y-20729781D01*
X33224227Y-20860223D01*
X33219642Y-21041938D01*
X33217748Y-21287858D01*
X33217376Y-21610915D01*
X33217376Y-22595035D01*
X32721986Y-22595035D01*
X32226596Y-22595035D01*
X32226596Y-21647844D01*
X32225334Y-21329982D01*
X32219326Y-21036491D01*
X32206134Y-20811234D01*
X32183341Y-20642524D01*
X32148531Y-20518671D01*
X32099287Y-20427989D01*
X32033194Y-20358788D01*
X31947835Y-20299381D01*
X31779773Y-20229904D01*
X31570905Y-20211368D01*
X31369105Y-20253856D01*
X31198113Y-20351869D01*
X31081672Y-20499913D01*
X31075161Y-20514467D01*
X31052201Y-20586798D01*
X31035162Y-20687645D01*
X31023265Y-20829314D01*
X31015731Y-21024112D01*
X31011782Y-21284345D01*
X31010639Y-21622320D01*
X31010639Y-22595035D01*
X30512522Y-22595035D01*
X30014406Y-22595035D01*
X30028391Y-21412854D01*
X30042376Y-20230673D01*
X30164673Y-19998794D01*
X30243063Y-19867715D01*
X30455126Y-19629438D01*
X30717873Y-19465114D01*
X31029448Y-19375709D01*
X31387993Y-19362188D01*
X31580239Y-19382767D01*
X31800621Y-19441440D01*
X31997744Y-19548569D01*
X32205627Y-19719001D01*
X32399535Y-19897740D01*
X32597577Y-19699698D01*
X32850612Y-19506246D01*
X33146471Y-19390736D01*
X33487589Y-19352482D01*
X33780754Y-19381072D01*
G37*
G36*
X25482243Y-19369794D02*
G01*
X25606354Y-19410799D01*
X25765274Y-19484851D01*
X25922370Y-19573580D01*
X26073755Y-19680513D01*
X26175909Y-19776859D01*
X26293987Y-19924841D01*
X26453762Y-19747989D01*
X26529026Y-19670336D01*
X26746175Y-19507357D01*
X26998134Y-19407875D01*
X27306911Y-19361929D01*
X27377373Y-19358514D01*
X27692812Y-19380335D01*
X27962033Y-19470216D01*
X28200657Y-19632893D01*
X28353547Y-19767132D01*
X28353547Y-19582324D01*
X28353547Y-19397517D01*
X28848937Y-19397517D01*
X29344327Y-19397517D01*
X29344327Y-20996276D01*
X29344327Y-22595035D01*
X28852744Y-22595035D01*
X28361160Y-22595035D01*
X28345836Y-21615514D01*
X28342056Y-21396373D01*
X28335241Y-21113575D01*
X28326508Y-20900309D01*
X28314798Y-20743966D01*
X28299050Y-20631937D01*
X28278203Y-20551615D01*
X28251196Y-20490389D01*
X28191386Y-20405362D01*
X28031125Y-20281963D01*
X27830863Y-20215298D01*
X27614599Y-20211442D01*
X27406328Y-20276471D01*
X27318761Y-20328436D01*
X27250370Y-20390605D01*
X27198737Y-20474303D01*
X27161252Y-20590952D01*
X27135310Y-20751975D01*
X27118303Y-20968795D01*
X27107624Y-21252834D01*
X27100664Y-21615514D01*
X27086256Y-22595035D01*
X26594015Y-22595035D01*
X26101774Y-22595035D01*
X26101774Y-21602018D01*
X26101723Y-21519987D01*
X26100028Y-21195426D01*
X26095403Y-20946702D01*
X26087143Y-20762152D01*
X26074537Y-20630110D01*
X26056878Y-20538913D01*
X26033458Y-20476894D01*
X25936402Y-20350710D01*
X25774746Y-20251968D01*
X25583844Y-20209718D01*
X25384539Y-20222179D01*
X25197677Y-20287568D01*
X25044100Y-20404102D01*
X24944652Y-20569999D01*
X24935676Y-20604081D01*
X24916244Y-20750613D01*
X24901688Y-20979274D01*
X24892296Y-21284456D01*
X24888358Y-21660549D01*
X24885816Y-22595035D01*
X24386451Y-22595035D01*
X23887085Y-22595035D01*
X23902855Y-21457890D01*
X23903571Y-21406612D01*
X23908859Y-21065212D01*
X23914663Y-20799661D01*
X23922080Y-20597394D01*
X23932206Y-20445847D01*
X23946137Y-20332456D01*
X23964970Y-20244655D01*
X23989801Y-20169880D01*
X24021726Y-20095567D01*
X24074266Y-19990058D01*
X24259702Y-19725892D01*
X24492204Y-19535840D01*
X24777913Y-19415810D01*
X25122972Y-19361710D01*
X25187885Y-19358058D01*
X25355300Y-19354619D01*
X25482243Y-19369794D01*
G37*
G36*
X23219504Y-20996276D02*
G01*
X23219504Y-22595035D01*
X22724114Y-22595035D01*
X22228724Y-22595035D01*
X22228724Y-20996276D01*
X22228724Y-19397517D01*
X22724114Y-19397517D01*
X23219504Y-19397517D01*
X23219504Y-20996276D01*
G37*
G36*
X19635549Y-19376288D02*
G01*
X19879227Y-19393694D01*
X20069077Y-19440637D01*
X20231658Y-19526029D01*
X20393529Y-19658779D01*
X20517376Y-19774652D01*
X20517376Y-19586085D01*
X20517376Y-19397517D01*
X21012766Y-19397517D01*
X21508157Y-19397517D01*
X21508157Y-20996276D01*
X21508157Y-22595035D01*
X21012766Y-22595035D01*
X20517376Y-22595035D01*
X20517376Y-21614811D01*
X20516666Y-21295217D01*
X20513831Y-21040931D01*
X20507926Y-20851167D01*
X20498009Y-20712941D01*
X20483135Y-20613270D01*
X20462361Y-20539173D01*
X20434745Y-20477666D01*
X20413457Y-20440648D01*
X20271159Y-20287417D01*
X20089762Y-20197946D01*
X19889808Y-20172236D01*
X19691843Y-20210285D01*
X19516409Y-20312095D01*
X19384050Y-20477666D01*
X19357223Y-20537036D01*
X19336241Y-20610517D01*
X19321189Y-20709147D01*
X19311125Y-20845909D01*
X19305104Y-21033785D01*
X19302183Y-21285758D01*
X19301419Y-21614811D01*
X19301419Y-22595035D01*
X18803261Y-22595035D01*
X18305103Y-22595035D01*
X18319130Y-21435372D01*
X18320436Y-21329049D01*
X18325129Y-20995976D01*
X18330534Y-20737177D01*
X18337704Y-20540267D01*
X18347693Y-20392859D01*
X18361554Y-20282568D01*
X18380340Y-20197007D01*
X18405104Y-20123790D01*
X18436901Y-20050531D01*
X18530997Y-19875061D01*
X18719648Y-19644815D01*
X18963653Y-19472528D01*
X19055278Y-19429861D01*
X19175684Y-19396701D01*
X19331185Y-19380089D01*
X19549114Y-19375494D01*
X19635549Y-19376288D01*
G37*
G36*
X12204698Y-19376288D02*
G01*
X12448376Y-19393694D01*
X12638226Y-19440637D01*
X12800807Y-19526029D01*
X12962678Y-19658779D01*
X13086525Y-19774652D01*
X13086525Y-19586085D01*
X13086525Y-19397517D01*
X13581915Y-19397517D01*
X14077305Y-19397517D01*
X14077305Y-20996276D01*
X14077305Y-22595035D01*
X13581915Y-22595035D01*
X13086525Y-22595035D01*
X13086525Y-21614811D01*
X13085815Y-21295217D01*
X13082980Y-21040931D01*
X13077075Y-20851167D01*
X13067158Y-20712941D01*
X13052284Y-20613270D01*
X13031510Y-20539173D01*
X13003894Y-20477666D01*
X12982606Y-20440648D01*
X12840308Y-20287417D01*
X12658911Y-20197946D01*
X12458957Y-20172236D01*
X12260992Y-20210285D01*
X12085558Y-20312095D01*
X11953199Y-20477666D01*
X11926372Y-20537036D01*
X11905390Y-20610517D01*
X11890338Y-20709147D01*
X11880274Y-20845909D01*
X11874253Y-21033785D01*
X11871332Y-21285758D01*
X11870568Y-21614811D01*
X11870568Y-22595035D01*
X11372410Y-22595035D01*
X10874252Y-22595035D01*
X10888279Y-21435372D01*
X10889585Y-21329049D01*
X10894278Y-20995976D01*
X10899683Y-20737177D01*
X10906853Y-20540267D01*
X10916842Y-20392859D01*
X10930703Y-20282568D01*
X10949489Y-20197007D01*
X10974253Y-20123790D01*
X11006050Y-20050531D01*
X11100146Y-19875061D01*
X11288797Y-19644815D01*
X11532802Y-19472528D01*
X11624427Y-19429861D01*
X11744832Y-19396701D01*
X11900334Y-19380089D01*
X12118263Y-19375494D01*
X12204698Y-19376288D01*
G37*
G36*
X10204256Y-20996276D02*
G01*
X10204256Y-22595035D01*
X9708866Y-22595035D01*
X9213476Y-22595035D01*
X9213476Y-20996276D01*
X9213476Y-19397517D01*
X9708866Y-19397517D01*
X10204256Y-19397517D01*
X10204256Y-20996276D01*
G37*
G36*
X71556660Y-9723194D02*
G01*
X71808665Y-9751409D01*
X72134798Y-9803115D01*
X72461804Y-9865051D01*
X73311874Y-10081160D01*
X74141126Y-10375420D01*
X74966078Y-10753374D01*
X75766569Y-11209816D01*
X76522895Y-11740747D01*
X77225069Y-12337593D01*
X77868909Y-12994731D01*
X78450234Y-13706538D01*
X78964863Y-14467393D01*
X79408613Y-15271672D01*
X79777303Y-16113752D01*
X80066752Y-16988012D01*
X80272779Y-17888829D01*
X80275472Y-17903962D01*
X80393137Y-18740382D01*
X80440522Y-19530570D01*
X80418185Y-20283746D01*
X80406794Y-20419390D01*
X80377524Y-20665650D01*
X80338397Y-20844398D01*
X80283635Y-20971230D01*
X80207461Y-21061739D01*
X80104098Y-21131522D01*
X80081510Y-21142325D01*
X79947016Y-21180704D01*
X79794641Y-21197133D01*
X79673519Y-21188736D01*
X79559424Y-21144041D01*
X79434357Y-21044688D01*
X79266135Y-20890441D01*
X79281573Y-20018550D01*
X79283812Y-19793888D01*
X79281685Y-19471147D01*
X79273985Y-19164469D01*
X79261401Y-18898500D01*
X79244623Y-18697886D01*
X79128182Y-17963462D01*
X78912007Y-17107579D01*
X78615979Y-16284606D01*
X78243782Y-15499442D01*
X77799098Y-14756990D01*
X77285611Y-14062149D01*
X76707005Y-13419821D01*
X76066963Y-12834906D01*
X75369168Y-12312306D01*
X74617304Y-11856922D01*
X73815054Y-11473654D01*
X73465146Y-11338995D01*
X72978158Y-11180584D01*
X72469775Y-11042631D01*
X71972812Y-10933867D01*
X71520083Y-10863023D01*
X71397344Y-10845413D01*
X71180163Y-10786824D01*
X71023913Y-10693797D01*
X70910234Y-10557122D01*
X70839850Y-10383465D01*
X70837308Y-10177299D01*
X70916750Y-9980762D01*
X71074855Y-9808940D01*
X71116957Y-9780202D01*
X71223651Y-9737520D01*
X71365937Y-9718541D01*
X71556660Y-9723194D01*
G37*
G36*
X71174242Y-12734059D02*
G01*
X71361814Y-12750860D01*
X71585371Y-12781560D01*
X71808604Y-12821492D01*
X71968319Y-12855911D01*
X72729384Y-13073780D01*
X73450576Y-13370754D01*
X74127627Y-13743514D01*
X74756266Y-14188737D01*
X75332226Y-14703102D01*
X75851236Y-15283288D01*
X76309027Y-15925973D01*
X76701329Y-16627836D01*
X76888030Y-17039978D01*
X77144014Y-17767682D01*
X77313463Y-18513481D01*
X77397469Y-19282798D01*
X77397125Y-20081057D01*
X77386251Y-20237019D01*
X77352415Y-20462578D01*
X77294472Y-20624892D01*
X77205249Y-20740697D01*
X77077574Y-20826729D01*
X77053022Y-20837468D01*
X76923522Y-20869714D01*
X76773422Y-20883024D01*
X76649304Y-20874282D01*
X76539965Y-20830000D01*
X76424398Y-20730567D01*
X76376748Y-20680006D01*
X76300267Y-20582479D01*
X76269135Y-20516648D01*
X76268088Y-20470853D01*
X76265753Y-20345767D01*
X76262515Y-20159599D01*
X76258650Y-19928276D01*
X76254434Y-19667730D01*
X76249601Y-19450168D01*
X76232026Y-19068287D01*
X76203444Y-18761284D01*
X76163075Y-18519326D01*
X76006122Y-17929742D01*
X75750010Y-17262411D01*
X75419101Y-16642641D01*
X75010429Y-16065025D01*
X74521029Y-15524156D01*
X74459211Y-15463815D01*
X73913969Y-14992301D01*
X73340305Y-14604262D01*
X72730651Y-14295799D01*
X72077441Y-14063013D01*
X71373107Y-13902005D01*
X71242468Y-13878604D01*
X71007503Y-13828212D01*
X70839156Y-13774267D01*
X70721444Y-13708995D01*
X70638381Y-13624622D01*
X70573981Y-13513374D01*
X70558499Y-13477895D01*
X70520884Y-13271598D01*
X70571397Y-13070418D01*
X70708446Y-12881838D01*
X70765624Y-12827241D01*
X70854926Y-12765220D01*
X70958619Y-12738192D01*
X71114398Y-12732269D01*
X71174242Y-12734059D01*
G37*
G36*
X71193688Y-15533616D02*
G01*
X71546924Y-15618777D01*
X71663206Y-15652808D01*
X72223641Y-15870796D01*
X72738582Y-16161535D01*
X73202680Y-16518018D01*
X73610588Y-16933240D01*
X73956958Y-17400194D01*
X74236444Y-17911875D01*
X74443697Y-18461275D01*
X74573370Y-19041390D01*
X74620116Y-19645212D01*
X74620238Y-19695647D01*
X74611732Y-19968654D01*
X74583172Y-20171664D01*
X74528973Y-20321128D01*
X74443546Y-20433498D01*
X74321307Y-20525227D01*
X74185619Y-20586201D01*
X73978597Y-20604329D01*
X73776613Y-20537834D01*
X73592384Y-20389089D01*
X73579475Y-20373873D01*
X73545717Y-20317023D01*
X73521150Y-20234932D01*
X73503137Y-20111397D01*
X73489040Y-19930211D01*
X73476224Y-19675170D01*
X73464517Y-19466009D01*
X73425791Y-19101804D01*
X73360045Y-18788374D01*
X73259362Y-18500381D01*
X73115828Y-18212486D01*
X72921529Y-17899352D01*
X72872654Y-17828901D01*
X72578536Y-17491135D01*
X72219518Y-17193234D01*
X71813269Y-16946284D01*
X71377458Y-16761372D01*
X70929753Y-16649584D01*
X70784039Y-16622235D01*
X70568429Y-16555645D01*
X70416088Y-16462201D01*
X70310183Y-16333312D01*
X70271593Y-16251536D01*
X70240734Y-16051873D01*
X70282897Y-15851927D01*
X70390804Y-15674949D01*
X70557177Y-15544191D01*
X70696581Y-15501017D01*
X70912084Y-15494502D01*
X71193688Y-15533616D01*
G37*
G36*
X52021993Y-18025575D02*
G01*
X52159034Y-18095013D01*
X52162011Y-18097523D01*
X52254991Y-18212357D01*
X52327934Y-18362070D01*
X52357447Y-18499024D01*
X52357220Y-18510593D01*
X52316488Y-18676934D01*
X52222180Y-18840276D01*
X52098238Y-18958206D01*
X52023167Y-18993655D01*
X51835282Y-19030957D01*
X51631978Y-19022944D01*
X51455264Y-18968918D01*
X51323973Y-18863647D01*
X51223161Y-18689176D01*
X51186525Y-18479982D01*
X51195513Y-18399415D01*
X51271291Y-18229637D01*
X51407498Y-18089750D01*
X51583873Y-18004023D01*
X51651550Y-17990777D01*
X51839313Y-17988691D01*
X52021993Y-18025575D01*
G37*
G36*
X22974120Y-18025575D02*
G01*
X23111162Y-18095013D01*
X23114139Y-18097523D01*
X23207118Y-18212357D01*
X23280062Y-18362070D01*
X23309575Y-18499024D01*
X23309347Y-18510593D01*
X23268616Y-18676934D01*
X23174308Y-18840276D01*
X23050366Y-18958206D01*
X22975294Y-18993655D01*
X22787410Y-19030957D01*
X22584106Y-19022944D01*
X22407392Y-18968918D01*
X22276101Y-18863647D01*
X22175288Y-18689176D01*
X22138653Y-18479982D01*
X22147641Y-18399415D01*
X22223419Y-18229637D01*
X22359626Y-18089750D01*
X22536001Y-18004023D01*
X22603678Y-17990777D01*
X22791440Y-17988691D01*
X22974120Y-18025575D01*
G37*
G36*
X9958872Y-18025575D02*
G01*
X10095913Y-18095013D01*
X10098890Y-18097523D01*
X10191870Y-18212357D01*
X10264814Y-18362070D01*
X10294327Y-18499024D01*
X10294099Y-18510593D01*
X10253367Y-18676934D01*
X10159059Y-18840276D01*
X10035118Y-18958206D01*
X9960046Y-18993655D01*
X9772161Y-19030957D01*
X9568858Y-19022944D01*
X9392143Y-18968918D01*
X9260853Y-18863647D01*
X9160040Y-18689176D01*
X9123405Y-18479982D01*
X9132393Y-18399415D01*
X9208171Y-18229637D01*
X9344377Y-18089750D01*
X9520753Y-18004023D01*
X9588429Y-17990777D01*
X9776192Y-17988691D01*
X9958872Y-18025575D01*
G37*
G36*
X72018028Y-18453799D02*
G01*
X72060461Y-18496808D01*
X72068850Y-18512753D01*
X72065777Y-18541843D01*
X72057859Y-18539817D01*
X72015426Y-18496808D01*
X72007038Y-18480863D01*
X72010110Y-18451773D01*
X72018028Y-18453799D01*
G37*
G36*
X71869061Y-18265886D02*
G01*
X71917097Y-18307105D01*
X71947873Y-18344698D01*
X71947133Y-18352601D01*
X71917791Y-18352905D01*
X71852057Y-18282890D01*
X71826900Y-18250259D01*
X71815717Y-18226937D01*
X71869061Y-18265886D01*
G37*
M02*
