%TF.GenerationSoftware,KiCad,Pcbnew,9.0.7*%
%TF.CreationDate,2026-05-15T13:54:58-04:00*%
%TF.ProjectId,Glassboard,476c6173-7362-46f6-9172-642e6b696361,rev?*%
%TF.SameCoordinates,Original*%
%TF.FileFunction,Copper,L1,Top*%
%TF.FilePolarity,Positive*%
%FSLAX46Y46*%
G04 Gerber Fmt 4.6, Leading zero omitted, Abs format (unit mm)*
G04 Created by KiCad (PCBNEW 9.0.7) date 2026-05-15 13:54:58*
%MOMM*%
%LPD*%
G01*
G04 APERTURE LIST*
G04 Aperture macros list*
%AMRoundRect*
0 Rectangle with rounded corners*
0 $1 Rounding radius*
0 $2 $3 $4 $5 $6 $7 $8 $9 X,Y pos of 4 corners*
0 Add a 4 corners polygon primitive as box body*
4,1,4,$2,$3,$4,$5,$6,$7,$8,$9,$2,$3,0*
0 Add four circle primitives for the rounded corners*
1,1,$1+$1,$2,$3*
1,1,$1+$1,$4,$5*
1,1,$1+$1,$6,$7*
1,1,$1+$1,$8,$9*
0 Add four rect primitives between the rounded corners*
20,1,$1+$1,$2,$3,$4,$5,0*
20,1,$1+$1,$4,$5,$6,$7,0*
20,1,$1+$1,$6,$7,$8,$9,0*
20,1,$1+$1,$8,$9,$2,$3,0*%
G04 Aperture macros list end*
%TA.AperFunction,EtchedComponent*%
%ADD10C,0.500000*%
%TD*%
%TA.AperFunction,SMDPad,CuDef*%
%ADD11R,2.000000X2.000000*%
%TD*%
%TA.AperFunction,SMDPad,CuDef*%
%ADD12R,1.358900X0.508000*%
%TD*%
%TA.AperFunction,SMDPad,CuDef*%
%ADD13RoundRect,0.135000X-0.185000X0.135000X-0.185000X-0.135000X0.185000X-0.135000X0.185000X0.135000X0*%
%TD*%
%TA.AperFunction,SMDPad,CuDef*%
%ADD14RoundRect,0.147500X0.172500X-0.147500X0.172500X0.147500X-0.172500X0.147500X-0.172500X-0.147500X0*%
%TD*%
%TA.AperFunction,SMDPad,CuDef*%
%ADD15RoundRect,0.135000X-0.135000X-0.185000X0.135000X-0.185000X0.135000X0.185000X-0.135000X0.185000X0*%
%TD*%
%TA.AperFunction,SMDPad,CuDef*%
%ADD16RoundRect,0.140000X-0.140000X-0.170000X0.140000X-0.170000X0.140000X0.170000X-0.140000X0.170000X0*%
%TD*%
%TA.AperFunction,SMDPad,CuDef*%
%ADD17RoundRect,0.135000X0.135000X0.185000X-0.135000X0.185000X-0.135000X-0.185000X0.135000X-0.185000X0*%
%TD*%
%TA.AperFunction,SMDPad,CuDef*%
%ADD18RoundRect,0.150000X-0.825000X-0.150000X0.825000X-0.150000X0.825000X0.150000X-0.825000X0.150000X0*%
%TD*%
%TA.AperFunction,SMDPad,CuDef*%
%ADD19RoundRect,0.140000X0.140000X0.170000X-0.140000X0.170000X-0.140000X-0.170000X0.140000X-0.170000X0*%
%TD*%
%TA.AperFunction,ViaPad*%
%ADD20C,0.600000*%
%TD*%
%TA.AperFunction,Conductor*%
%ADD21C,0.200000*%
%TD*%
G04 APERTURE END LIST*
D10*
X3700000Y-4000000D02*
X3700000Y-2000000D01*
X3700000Y-4000000D02*
X81700000Y-4000000D01*
X3700000Y-4800000D02*
X4500000Y-4800000D01*
X3700000Y-50400000D02*
X3700000Y-4800000D01*
X4500000Y-4800000D02*
X80900000Y-4800000D01*
X4500000Y-5600000D02*
X5300000Y-5600000D01*
X4500000Y-49600000D02*
X4500000Y-5600000D01*
X5300000Y-5600000D02*
X80100000Y-5600000D01*
X5300000Y-6400000D02*
X6100000Y-6400000D01*
X5300000Y-48800000D02*
X5300000Y-6400000D01*
X6100000Y-6400000D02*
X79300000Y-6400000D01*
X6100000Y-7200000D02*
X6900000Y-7200000D01*
X6100000Y-48000000D02*
X6100000Y-7200000D01*
X6900000Y-7200000D02*
X78500000Y-7200000D01*
X6900000Y-47200000D02*
X8900000Y-45200000D01*
X78500000Y-7200000D02*
X78500000Y-47200000D01*
X78500000Y-47200000D02*
X6900000Y-47200000D01*
X79300000Y-6400000D02*
X79300000Y-48000000D01*
X79300000Y-48000000D02*
X6100000Y-48000000D01*
X80100000Y-5600000D02*
X80100000Y-48800000D01*
X80100000Y-48800000D02*
X5300000Y-48800000D01*
X80900000Y-4800000D02*
X80900000Y-49600000D01*
X80900000Y-49600000D02*
X4500000Y-49600000D01*
X81700000Y-4000000D02*
X81700000Y-50400000D01*
X81700000Y-50400000D02*
X3700000Y-50400000D01*
D11*
X71900000Y-41650000D03*
X70950000Y-34350000D03*
D12*
X56271150Y-28825021D03*
X56271150Y-29475007D03*
X56271150Y-30124993D03*
X56271150Y-30774979D03*
X60728850Y-30774979D03*
X60728850Y-30124993D03*
X60728850Y-29475007D03*
X60728850Y-28825021D03*
D13*
X55950000Y-40390000D03*
X55950000Y-41410000D03*
D14*
X59700000Y-44485000D03*
X59700000Y-43515000D03*
D15*
X63740000Y-36600000D03*
X64760000Y-36600000D03*
D13*
X59300000Y-40390000D03*
X59300000Y-41410000D03*
D14*
X58050000Y-44485000D03*
X58050000Y-43515000D03*
D16*
X63690000Y-40150000D03*
X64650000Y-40150000D03*
D17*
X53550000Y-34450000D03*
X52530000Y-34450000D03*
D18*
X55925000Y-33995000D03*
X55925000Y-35265000D03*
X55925000Y-36535000D03*
X55925000Y-37805000D03*
X60875000Y-37805000D03*
X60875000Y-36535000D03*
X60875000Y-35265000D03*
X60875000Y-33995000D03*
D15*
X52780000Y-29900000D03*
X53800000Y-29900000D03*
X63030000Y-31050000D03*
X64050000Y-31050000D03*
D13*
X57730000Y-40390000D03*
X57730000Y-41410000D03*
D19*
X59330000Y-26050000D03*
X58370000Y-26050000D03*
D16*
X63140000Y-28050000D03*
X64100000Y-28050000D03*
D15*
X53040000Y-30950000D03*
X54060000Y-30950000D03*
D14*
X56450000Y-44367500D03*
X56450000Y-43397500D03*
D11*
X3700000Y-2000000D03*
X8900000Y-45200000D03*
X73650000Y-37700000D03*
D20*
X10700000Y-8450000D03*
X5850000Y-2000000D03*
X61050000Y-32800000D03*
X54550000Y-28250000D03*
X65300000Y-28250000D03*
X52530000Y-34450000D03*
X60875000Y-37805000D03*
X56300000Y-32185000D03*
X55925000Y-36535000D03*
X53550000Y-34450000D03*
X66480000Y-42450000D03*
D21*
X71610000Y-37700000D02*
X71000000Y-37090000D01*
X73650000Y-37700000D02*
X71610000Y-37700000D01*
X56271150Y-28825021D02*
X56271150Y-28148850D01*
X56271150Y-28148850D02*
X56885000Y-27535000D01*
X10750000Y-8500000D02*
X10700000Y-8450000D01*
X56885000Y-27535000D02*
X58370000Y-26050000D01*
X5850000Y-2000000D02*
X4151000Y-2000000D01*
X56885000Y-12085000D02*
X53300000Y-8500000D01*
X53300000Y-8500000D02*
X10750000Y-8500000D01*
X56885000Y-27535000D02*
X56885000Y-12085000D01*
X60728850Y-27448850D02*
X60090000Y-26810000D01*
X77949000Y-29599000D02*
X77949000Y-44751000D01*
X21999000Y-44649000D02*
X9451000Y-44649000D01*
X76250000Y-46450000D02*
X23800000Y-46450000D01*
X77949000Y-44751000D02*
X76250000Y-46450000D01*
X60728850Y-28825021D02*
X60728850Y-27448850D01*
X23800000Y-46450000D02*
X21999000Y-44649000D01*
X60090000Y-26810000D02*
X59330000Y-26050000D01*
X75160000Y-26810000D02*
X77949000Y-29599000D01*
X60090000Y-26810000D02*
X75160000Y-26810000D01*
X9451000Y-44649000D02*
X9289616Y-44810384D01*
X60875000Y-36535000D02*
X61849999Y-36535000D01*
X61849999Y-36535000D02*
X62332499Y-37017501D01*
X61435000Y-36535000D02*
X60875000Y-36535000D01*
X62535998Y-37221000D02*
X62332499Y-37017501D01*
X64139000Y-37221000D02*
X62535998Y-37221000D01*
X63690000Y-38375001D02*
X63690000Y-40150000D01*
X62332499Y-37017501D02*
X63690000Y-38375001D01*
X64760000Y-36600000D02*
X64139000Y-37221000D01*
X56271150Y-29475007D02*
X55385686Y-29475007D01*
X65100000Y-28050000D02*
X65300000Y-28250000D01*
X60650000Y-45900000D02*
X61715000Y-44835000D01*
X54550000Y-28639321D02*
X54550000Y-28250000D01*
X58050000Y-45000000D02*
X58950000Y-45900000D01*
X61715000Y-44485000D02*
X66050000Y-40150000D01*
X58950000Y-45900000D02*
X59050000Y-45900000D01*
X61715000Y-44835000D02*
X61715000Y-44485000D01*
X58050000Y-44485000D02*
X58050000Y-45000000D01*
X57150000Y-45900000D02*
X56450000Y-45200000D01*
X59700000Y-44485000D02*
X61715000Y-44485000D01*
X60875000Y-33995000D02*
X60875000Y-32975000D01*
X67940000Y-40150000D02*
X71000000Y-37090000D01*
X66050000Y-40150000D02*
X67940000Y-40150000D01*
X55385686Y-29475007D02*
X54550000Y-28639321D01*
X59050000Y-45900000D02*
X60650000Y-45900000D01*
X56450000Y-45200000D02*
X56450000Y-44367500D01*
X59050000Y-45900000D02*
X57150000Y-45900000D01*
X64100000Y-28050000D02*
X65100000Y-28050000D01*
X64650000Y-40150000D02*
X66050000Y-40150000D01*
X60875000Y-32975000D02*
X61050000Y-32800000D01*
X58050000Y-41730000D02*
X57730000Y-41410000D01*
X58050000Y-43515000D02*
X58050000Y-41730000D01*
X59700000Y-43515000D02*
X59700000Y-41810000D01*
X59700000Y-41810000D02*
X59300000Y-41410000D01*
X56450000Y-41910000D02*
X55950000Y-41410000D01*
X56450000Y-43397500D02*
X56450000Y-41910000D01*
X58950000Y-32100000D02*
X62500000Y-32100000D01*
X58385000Y-31535000D02*
X58950000Y-32100000D01*
X61714993Y-29475007D02*
X60728850Y-29475007D01*
X62500000Y-32100000D02*
X62850000Y-32100000D01*
X62850000Y-32100000D02*
X63030000Y-31920000D01*
X54875000Y-32785000D02*
X53040000Y-30950000D01*
X60728850Y-30124993D02*
X60728850Y-29475007D01*
X63740000Y-36600000D02*
X63740000Y-33340000D01*
X57135000Y-32785000D02*
X54875000Y-32785000D01*
X57135000Y-32785000D02*
X55925000Y-33995000D01*
X63140000Y-28050000D02*
X61714993Y-29475007D01*
X60728850Y-30124993D02*
X59795007Y-30124993D01*
X63740000Y-33340000D02*
X62500000Y-32100000D01*
X53040000Y-30160000D02*
X52780000Y-29900000D01*
X58385000Y-31535000D02*
X57135000Y-32785000D01*
X64950000Y-34550000D02*
X71000000Y-34550000D01*
X63740000Y-33340000D02*
X64950000Y-34550000D01*
X63030000Y-31920000D02*
X63030000Y-31050000D01*
X53040000Y-30950000D02*
X53040000Y-30160000D01*
X59795007Y-30124993D02*
X58385000Y-31535000D01*
X54235021Y-30774979D02*
X54060000Y-30950000D01*
X55065000Y-30950000D02*
X56300000Y-32185000D01*
X56271150Y-30774979D02*
X54235021Y-30774979D01*
X54060000Y-30950000D02*
X55065000Y-30950000D01*
X57730000Y-38530000D02*
X57005000Y-37805000D01*
X57730000Y-40390000D02*
X57730000Y-38530000D01*
X57005000Y-37805000D02*
X55925000Y-37805000D01*
X60528032Y-35265000D02*
X60875000Y-35265000D01*
X59300000Y-40390000D02*
X59300000Y-36493032D01*
X59300000Y-36493032D02*
X60528032Y-35265000D01*
X55950000Y-40390000D02*
X54000000Y-38440000D01*
X54000000Y-38440000D02*
X54000000Y-36215001D01*
X54000000Y-36215001D02*
X54950001Y-35265000D01*
X54950001Y-35265000D02*
X55925000Y-35265000D01*
X56271150Y-30124993D02*
X55424993Y-30124993D01*
X55424993Y-30124993D02*
X55200000Y-29900000D01*
X55200000Y-29900000D02*
X53800000Y-29900000D01*
X64050000Y-30300000D02*
X64050000Y-31050000D01*
X63600000Y-29850000D02*
X64050000Y-30300000D01*
X62600000Y-29850000D02*
X63600000Y-29850000D01*
X61675021Y-30774979D02*
X62600000Y-29850000D01*
X60728850Y-30774979D02*
X61675021Y-30774979D01*
X71900000Y-41650000D02*
X67280000Y-41650000D01*
X67280000Y-41650000D02*
X66480000Y-42450000D01*
M02*
