%TF.GenerationSoftware,KiCad,Pcbnew,9.0.7*%
%TF.CreationDate,2026-05-15T13:54:58-04:00*%
%TF.ProjectId,Glassboard,476c6173-7362-46f6-9172-642e6b696361,rev?*%
%TF.SameCoordinates,Original*%
%TF.FileFunction,Copper,L2,Bot*%
%TF.FilePolarity,Positive*%
%FSLAX46Y46*%
G04 Gerber Fmt 4.6, Leading zero omitted, Abs format (unit mm)*
G04 Created by KiCad (PCBNEW 9.0.7) date 2026-05-15 13:54:58*
%MOMM*%
%LPD*%
G01*
G04 APERTURE LIST*
%TA.AperFunction,ViaPad*%
%ADD10C,0.600000*%
%TD*%
%TA.AperFunction,Conductor*%
%ADD11C,0.200000*%
%TD*%
G04 APERTURE END LIST*
D10*
X10700000Y-8450000D03*
X5850000Y-2000000D03*
X61050000Y-32800000D03*
X54550000Y-28250000D03*
X65300000Y-28250000D03*
X52530000Y-34450000D03*
X60875000Y-37805000D03*
X56300000Y-32185000D03*
X55925000Y-36535000D03*
X53550000Y-34450000D03*
X66480000Y-42450000D03*
D11*
X60530000Y-42450000D02*
X52530000Y-34450000D01*
X66480000Y-42450000D02*
X60530000Y-42450000D01*
X69340000Y-37090000D02*
X71000000Y-37090000D01*
X65050000Y-32800000D02*
X69340000Y-37090000D01*
X61050000Y-32800000D02*
X65050000Y-32800000D01*
X5850000Y-3600000D02*
X10700000Y-8450000D01*
X5850000Y-2000000D02*
X5850000Y-3600000D01*
X54550000Y-28250000D02*
X65300000Y-28250000D01*
X61050000Y-32800000D02*
X61050000Y-32500000D01*
X61050000Y-32500000D02*
X65300000Y-28250000D01*
X59100000Y-36450000D02*
X60455000Y-37805000D01*
X60455000Y-37805000D02*
X60875000Y-37805000D01*
X59100000Y-34985000D02*
X59100000Y-36450000D01*
X56300000Y-32185000D02*
X59100000Y-34985000D01*
X53840000Y-34450000D02*
X53550000Y-34450000D01*
X55925000Y-36535000D02*
X53840000Y-34450000D01*
M02*
