%TF.GenerationSoftware,KiCad,Pcbnew,9.0.7*%
%TF.CreationDate,2026-05-15T13:54:58-04:00*%
%TF.ProjectId,Glassboard,476c6173-7362-46f6-9172-642e6b696361,rev?*%
%TF.SameCoordinates,Original*%
%TF.FileFunction,Paste,Top*%
%TF.FilePolarity,Positive*%
%FSLAX46Y46*%
G04 Gerber Fmt 4.6, Leading zero omitted, Abs format (unit mm)*
G04 Created by KiCad (PCBNEW 9.0.7) date 2026-05-15 13:54:58*
%MOMM*%
%LPD*%
G01*
G04 APERTURE LIST*
G04 Aperture macros list*
%AMRoundRect*
0 Rectangle with rounded corners*
0 $1 Rounding radius*
0 $2 $3 $4 $5 $6 $7 $8 $9 X,Y pos of 4 corners*
0 Add a 4 corners polygon primitive as box body*
4,1,4,$2,$3,$4,$5,$6,$7,$8,$9,$2,$3,0*
0 Add four circle primitives for the rounded corners*
1,1,$1+$1,$2,$3*
1,1,$1+$1,$4,$5*
1,1,$1+$1,$6,$7*
1,1,$1+$1,$8,$9*
0 Add four rect primitives between the rounded corners*
20,1,$1+$1,$2,$3,$4,$5,0*
20,1,$1+$1,$4,$5,$6,$7,0*
20,1,$1+$1,$6,$7,$8,$9,0*
20,1,$1+$1,$8,$9,$2,$3,0*%
G04 Aperture macros list end*
%ADD10R,1.358900X0.508000*%
%ADD11RoundRect,0.135000X-0.185000X0.135000X-0.185000X-0.135000X0.185000X-0.135000X0.185000X0.135000X0*%
%ADD12RoundRect,0.147500X0.172500X-0.147500X0.172500X0.147500X-0.172500X0.147500X-0.172500X-0.147500X0*%
%ADD13RoundRect,0.135000X-0.135000X-0.185000X0.135000X-0.185000X0.135000X0.185000X-0.135000X0.185000X0*%
%ADD14RoundRect,0.140000X-0.140000X-0.170000X0.140000X-0.170000X0.140000X0.170000X-0.140000X0.170000X0*%
%ADD15RoundRect,0.135000X0.135000X0.185000X-0.135000X0.185000X-0.135000X-0.185000X0.135000X-0.185000X0*%
%ADD16RoundRect,0.150000X-0.825000X-0.150000X0.825000X-0.150000X0.825000X0.150000X-0.825000X0.150000X0*%
%ADD17RoundRect,0.140000X0.140000X0.170000X-0.140000X0.170000X-0.140000X-0.170000X0.140000X-0.170000X0*%
%ADD18R,2.000000X2.000000*%
G04 APERTURE END LIST*
D10*
X56271150Y-28825021D03*
X56271150Y-29475007D03*
X56271150Y-30124993D03*
X56271150Y-30774979D03*
X60728850Y-30774979D03*
X60728850Y-30124993D03*
X60728850Y-29475007D03*
X60728850Y-28825021D03*
D11*
X55950000Y-40390000D03*
X55950000Y-41410000D03*
D12*
X59700000Y-44485000D03*
X59700000Y-43515000D03*
D13*
X63740000Y-36600000D03*
X64760000Y-36600000D03*
D11*
X59300000Y-40390000D03*
X59300000Y-41410000D03*
D12*
X58050000Y-44485000D03*
X58050000Y-43515000D03*
D14*
X63690000Y-40150000D03*
X64650000Y-40150000D03*
D15*
X53550000Y-34450000D03*
X52530000Y-34450000D03*
D16*
X55925000Y-33995000D03*
X55925000Y-35265000D03*
X55925000Y-36535000D03*
X55925000Y-37805000D03*
X60875000Y-37805000D03*
X60875000Y-36535000D03*
X60875000Y-35265000D03*
X60875000Y-33995000D03*
D13*
X52780000Y-29900000D03*
X53800000Y-29900000D03*
X63030000Y-31050000D03*
X64050000Y-31050000D03*
D11*
X57730000Y-40390000D03*
X57730000Y-41410000D03*
D17*
X59330000Y-26050000D03*
X58370000Y-26050000D03*
D14*
X63140000Y-28050000D03*
X64100000Y-28050000D03*
D13*
X53040000Y-30950000D03*
X54060000Y-30950000D03*
D12*
X56450000Y-44367500D03*
X56450000Y-43397500D03*
D18*
X3700000Y-2000000D03*
X8900000Y-45200000D03*
M02*
